<svg xmlns="http://www.w3.org/2000/svg" viewBox="0 0 500 500"><g id="freepik--Background--inject-39"><path id="freepik--background--inject-39" d="M155.92,43.31C33.65,107.85-19.62,282.35,44.35,379.23c78.73,119.24,212,117.27,293.26,93,119.78-35.77,159.48-154.08,141-248.19-9.69-49.2-41.19-111.46-87-151.32C329.31,18.65,250.14-6.43,155.92,43.31Z" style="fill:#37474f"></path></g><g id="freepik--City--inject-39"><g id="freepik--Buildings--inject-39"><path d="M478.8,277.32l-11.89-6.86L455,277.32V207l-7-4-.29-15.78h-.24v-8.87h-.77v8.87h-.23l-.27,14.74-7-4.06L423.33,207v22.87l-19.81,11.44v65.27L395.59,302V282.92l-9.16-5.29L386,252.81h-1.24l-.43,23.59-8.53-4.92L352,285.24v-8.69l-23.77-13.72L312.39,272V240.72l-15.85-9.15-5.18,3-.47-26.23h-.24v-8.88h-.77v8.88h-.24l-.49,27.51-16.38,9.46v50.32l-7.93-4.57V277.32L253,270.46v-32l-27.74-16V245.3l-15.85-9.15V172.1l-31.69-18.3-3.8,2.19-.68-37.43H173v-8.87h-.77v8.87H172l-.71,38.95-5.46,3.15V179l-7.93,4.57v18.3l-4,2.29v64.05l-15.68,9V228.12l-23.94-13.85L94.47,225.71v12.87l-27.73-16-5.38,3.1L60.68,202h-.24v-8.87h-.77V202h-.23l-.71,25.21-7.84,4.53v59.53L35,300.4v62.51a147.47,147.47,0,0,0,9.31,16.32c69.95,106,183,116.2,264.31,100.15,9.9-2.56,19.34-5.26,28.18-7.9a281.79,281.79,0,0,0,39.58-15.05,191.74,191.74,0,0,0,75.23-71.25l0,0c.94-1.57,1.87-3.16,2.77-4.75l.06-.1a210.72,210.72,0,0,0,12-24.95l0-.11c.66-1.65,1.31-3.31,1.93-5l.08-.23a223.86,223.86,0,0,0,8-26.25v0q.63-2.61,1.18-5.22l.05-.23c.37-1.75.73-3.51,1.06-5.27Z" style="fill:#263238"></path><rect x="384.97" y="243.94" width="0.77" height="8.87" style="fill:#263238"></rect><path d="M431.25,391.83V314.5l-10.68-6.16L420,276h-.24v-8.87H419V276h-.24l-.56,31-6.74-3.89-23.93,13.84v31.78l-15.69-9v-9.05l-4-2.29V310l-7.93-4.58v-7.79l-11.88-9-31.7,18.3v12.26l-7.92,4.45V298.36l-7.93-4.44-15.13,8.73-.18-9.6H284l-.19,10.53-11,6.35v32l-11.89,6.87v13.72L253,367.12V316.79l-23.78-13.72-15.84,9.15v9.25l-15.85-9.15-23.78,13.49V312.38l-23.77-13.76-19.81,11.44v45.72l-7.92,4.58v-23L102.4,325.94V303.07l-15.85-9.15L81.15,297l-.42-26.59h-.24v-8.87h-.77v8.87h-.23L79,298.25l-8.34,4.82v45.75L58.81,342l-11.88,6.87V383c67.19,98.09,172.16,111.22,251.49,98.19,13.67-2.83,26.59-6.21,38.42-9.74a280.5,280.5,0,0,0,39.81-15.17,192.78,192.78,0,0,0,41.5-29.58l.2-.19q3.73-3.51,7.25-7.18l.23-.25q1.17-1.22,2.31-2.46v0q3.45-3.75,6.67-7.66l.42-.5q3-3.69,5.85-7.5l.47-.64c.61-.83,1.21-1.65,1.8-2.48l.16-.23c1.2-1.69,2.36-3.39,3.5-5.1l.33-.5c.54-.82,1.08-1.65,1.61-2.49.16-.25.32-.5.47-.75q2.46-3.88,4.73-7.86l.45-.81c.49-.87,1-1.73,1.45-2.61Z" style="opacity:0.2"></path></g><g id="freepik--Street--inject-39"><path d="M416.29,406.12c-96.18-42.68-252.11-42.68-348.28,0l-2.35,1.06c79.82,90.77,197.65,87.24,272,65.06,39.71-11.86,70.62-32.8,93.52-58.92Q424.14,409.62,416.29,406.12Z" style="fill:#455a64"></path><path d="M68,399.23c-1.14.5-3.94,1.62-6.78,2.75a234.19,234.19,0,0,0,23.13,24.19L165,379.59v-6.9h0C129.54,377.87,96.2,386.71,68,399.23Z" style="fill:#37474f"></path><path d="M79.77,421.91q2.28,2.18,4.58,4.26L165,379.59v-6.9h0Z" style="fill:#263238"></path><path d="M438.55,404.32c-2.64-1.05-5.16-2.05-6.22-2.52-28.2-12.52-61.54-21.36-97-26.53h0v6.9L416,428.74A191.38,191.38,0,0,0,438.55,404.32Z" style="fill:#37474f"></path><path d="M420.54,424.47l-85.22-49.2h0v6.9L416,428.74C417.53,427.34,419.05,425.91,420.54,424.47Z" style="fill:#263238"></path></g></g><g id="freepik--Explosion--inject-39"><g id="freepik--explosion--inject-39"><path d="M272.33,345.51c10.12-2,18.73,2.65,21.73,9.67a16.28,16.28,0,0,1,13.56-.93c0-5.53-3.59-10.16-12-8.49C293.38,335.29,276.44,335.08,272.33,345.51Z" style="fill:#E45858"></path><path d="M272.33,345.51c10.12-2,18.73,2.65,21.73,9.67a16.28,16.28,0,0,1,13.56-.93c0-5.53-3.59-10.16-12-8.49C293.38,335.29,276.44,335.08,272.33,345.51Z" style="fill:#fff;opacity:0.6000000000000001"></path><path d="M212.22,307.77c-10.19-1.57-18.6,3.41-21.32,10.54a16.28,16.28,0,0,0-13.59-.38c-.22-5.53,3.18-10.3,11.64-9C190.77,298.41,207.7,297.51,212.22,307.77Z" style="fill:#E45858"></path><path d="M212.22,307.77c-10.19-1.57-18.6,3.41-21.32,10.54a16.28,16.28,0,0,0-13.59-.38c-.22-5.53,3.18-10.3,11.64-9C190.77,298.41,207.7,297.51,212.22,307.77Z" style="fill:#fff;opacity:0.6000000000000001"></path><path d="M202.11,339.14c-7.73,3.57-12.19,14.86-12.19,14.86s-8-4-16,.22-9.07,9-9.07,9a12.41,12.41,0,0,0-6.24,1.87c-3.72-5-.6-18.11,10.85-16.31-1.49-4.74,2-13.32,11.07-14.11a12.45,12.45,0,0,1,11.45,4.91C193.27,336.91,199.18,334.14,202.11,339.14Z" style="fill:#E45858"></path><path d="M202.11,339.14c-7.73,3.57-12.19,14.86-12.19,14.86s-8-4-16,.22-9.07,9-9.07,9a12.41,12.41,0,0,0-6.24,1.87c-3.72-5-.6-18.11,10.85-16.31-1.49-4.74,2-13.32,11.07-14.11a12.45,12.45,0,0,1,11.45,4.91C193.27,336.91,199.18,334.14,202.11,339.14Z" style="fill:#fff;opacity:0.6000000000000001"></path><path d="M294.44,314.5c6.91-7.44,20.83-1.18,21.59,5.48,6.51-8.56,21.36-5.88,23.37,6.07,1.48-5.37,2.27-15.69-7.46-19.24-9.08-3.31-13.86,2.11-13.86,2.11s-1.27-7.29-7.47-7.8c-7.23-.61-8.24,5.35-8.24,5.35C299.21,303.84,291.29,308.53,294.44,314.5Z" style="fill:#E45858"></path><path d="M294.44,314.5c6.91-7.44,20.83-1.18,21.59,5.48,6.51-8.56,21.36-5.88,23.37,6.07,1.48-5.37,2.27-15.69-7.46-19.24-9.08-3.31-13.86,2.11-13.86,2.11s-1.27-7.29-7.47-7.8c-7.23-.61-8.24,5.35-8.24,5.35C299.21,303.84,291.29,308.53,294.44,314.5Z" style="fill:#fff;opacity:0.6000000000000001"></path><ellipse cx="250.03" cy="375.29" rx="54.24" ry="22.24" style="fill:#E45858"></ellipse><ellipse cx="250.03" cy="375.29" rx="54.24" ry="22.24" style="fill:#E45858"></ellipse><ellipse cx="250.03" cy="375.29" rx="54.24" ry="22.24" style="fill:#fff;opacity:0.9"></ellipse><path d="M194.78,363.81a24.1,24.1,0,0,1,48.19,0c0,.23,0,.44,0,.67s0,.44,0,.67c-.27,3.34-2.63,6.61-7.05,9.17-9.41,5.44-24.68,5.44-34.11,0-4.4-2.56-6.75-5.83-7-9.17,0-.23,0-.44,0-.67S194.76,364,194.78,363.81Z" style="fill:#E45858"></path><path d="M194.78,363.81a24.1,24.1,0,0,1,48.19,0c0,.23,0,.44,0,.67s0,.44,0,.67c-.27,3.34-2.63,6.61-7.05,9.17-9.41,5.44-24.68,5.44-34.11,0-4.4-2.56-6.75-5.83-7-9.17,0-.23,0-.44,0-.67S194.76,364,194.78,363.81Z" style="fill:#fff;opacity:0.7000000000000001"></path><path d="M208.42,342.77h0a24.06,24.06,0,0,1,34.55,21c0,.23,0,.44,0,.67s0,.44,0,.67c-.27,3.34-2.63,6.61-7.05,9.17a31.94,31.94,0,0,1-12.1,3.77c6.26-1.08,10.3-8.06,8.38-15.77C230,353.38,220.93,340.46,208.42,342.77Z" style="fill:#fff;opacity:0.30000000000000004;mix-blend-mode:lighten"></path><path d="M194.78,365.15c0-.23,0-.44,0-.67s0-.44,0-.67A24,24,0,0,1,203,346.39c-2.61,2.69-8.44,12.84-2.11,20.57,4.16,5.09,23.92,12.35,40.18,3a16.86,16.86,0,0,1-5.11,4.34c-9.41,5.44-24.68,5.44-34.11,0C197.41,371.76,195.06,368.49,194.78,365.15Z" style="fill:#E45858;opacity:0.1"></path><path d="M219.12,345.8c-1.08,2.45,1,5.74,4.63,7.34s7.46.9,8.54-1.56-1-5.74-4.63-7.34S220.2,343.34,219.12,345.8Z" style="fill:#fff;opacity:0.5;mix-blend-mode:lighten"></path><path d="M233.08,355.8a3.17,3.17,0,1,0,3.86-1.07A2.86,2.86,0,0,0,233.08,355.8Z" style="fill:#fff;opacity:0.5;mix-blend-mode:lighten"></path><path d="M294,369a20.47,20.47,0,0,0-40.92,0,5.52,5.52,0,0,0,0,.57,5.62,5.62,0,0,0,0,.58c.23,2.83,2.22,5.61,6,7.78,8,4.62,21,4.62,29,0,3.74-2.17,5.73-4.95,6-7.78,0-.2,0-.38,0-.58S294,369.21,294,369Z" style="fill:#E45858"></path><path d="M294,369a20.47,20.47,0,0,0-40.92,0,5.52,5.52,0,0,0,0,.57,5.62,5.62,0,0,0,0,.58c.23,2.83,2.22,5.61,6,7.78,8,4.62,21,4.62,29,0,3.74-2.17,5.73-4.95,6-7.78,0-.2,0-.38,0-.58S294,369.21,294,369Z" style="fill:#fff;opacity:0.7000000000000001"></path><path d="M282.4,351.15h0A20.44,20.44,0,0,0,253.06,369a5.52,5.52,0,0,0,0,.57,5.62,5.62,0,0,0,0,.58c.23,2.83,2.22,5.61,6,7.78a27.33,27.33,0,0,0,10.27,3.21c-5.31-.92-8.74-6.85-7.11-13.39C264.09,360.16,271.77,349.19,282.4,351.15Z" style="fill:#fff;opacity:0.30000000000000004;mix-blend-mode:lighten"></path><path d="M294,370.16c0-.2,0-.38,0-.58s0-.37,0-.57a20.41,20.41,0,0,0-7-14.79c2.22,2.29,7.17,10.91,1.79,17.48-3.53,4.32-20.31,10.48-34.12,2.56a14.3,14.3,0,0,0,4.34,3.68c8,4.62,21,4.62,29,0C291.75,375.77,293.74,373,294,370.16Z" style="fill:#E45858;opacity:0.1"></path><path d="M273.31,353.72c.91,2.09-.85,4.88-3.93,6.23s-6.34.77-7.25-1.32.84-4.88,3.93-6.23S272.39,351.64,273.31,353.72Z" style="fill:#fff;opacity:0.5;mix-blend-mode:lighten"></path><path d="M261.45,362.21a2.69,2.69,0,1,1-3.27-.91A2.43,2.43,0,0,1,261.45,362.21Z" style="fill:#fff;opacity:0.5;mix-blend-mode:lighten"></path><path d="M314.78,372.52a13.54,13.54,0,0,0-27.06,0,3.62,3.62,0,0,0,0,.76c.15,1.87,1.47,3.71,4,5.15,5.28,3.05,13.86,3.05,19.15,0,2.47-1.44,3.79-3.28,3.95-5.15,0-.13,0-.25,0-.38S314.79,372.65,314.78,372.52Z" style="fill:#E45858"></path><path d="M314.78,372.52a13.54,13.54,0,0,0-27.06,0,3.62,3.62,0,0,0,0,.76c.15,1.87,1.47,3.71,4,5.15,5.28,3.05,13.86,3.05,19.15,0,2.47-1.44,3.79-3.28,3.95-5.15,0-.13,0-.25,0-.38S314.79,372.65,314.78,372.52Z" style="fill:#fff;opacity:0.5"></path><path d="M307.12,360.71h0a13.52,13.52,0,0,0-19.4,11.81,3.62,3.62,0,0,0,0,.76c.15,1.87,1.47,3.71,4,5.15a17.92,17.92,0,0,0,6.79,2.12c-3.51-.61-5.79-4.53-4.71-8.86C295,366.67,300.09,359.41,307.12,360.71Z" style="fill:#fff;opacity:0.5;mix-blend-mode:lighten"></path><path d="M314.78,373.28c0-.13,0-.25,0-.38s0-.25,0-.38a13.52,13.52,0,0,0-4.6-9.78c1.47,1.52,4.74,7.21,1.19,11.56-2.34,2.85-13.43,6.93-22.57,1.69a9.36,9.36,0,0,0,2.88,2.44c5.28,3.05,13.86,3.05,19.15,0C313.3,377,314.62,375.15,314.78,373.28Z" style="fill:#E45858;opacity:0.1"></path><path d="M301.11,362.41c.6,1.38-.56,3.23-2.6,4.12s-4.19.51-4.8-.87.56-3.23,2.6-4.12S300.5,361,301.11,362.41Z" style="fill:#fff;opacity:0.5;mix-blend-mode:lighten"></path><path d="M293.27,368a1.61,1.61,0,0,1-1,2,1.45,1.45,0,1,1,1-2Z" style="fill:#fff;opacity:0.5;mix-blend-mode:lighten"></path><path d="M345.84,374.84a18.39,18.39,0,0,0-36.77,0,4.52,4.52,0,0,0,0,.52,4.43,4.43,0,0,0,0,.51c.2,2.55,2,5,5.38,7,7.17,4.15,18.83,4.15,26,0,3.37-2,5.16-4.45,5.37-7,0-.18,0-.34,0-.51S345.85,375,345.84,374.84Z" style="fill:#E45858"></path><path d="M345.84,374.84a18.39,18.39,0,0,0-36.77,0,4.52,4.52,0,0,0,0,.52,4.43,4.43,0,0,0,0,.51c.2,2.55,2,5,5.38,7,7.17,4.15,18.83,4.15,26,0,3.37-2,5.16-4.45,5.37-7,0-.18,0-.34,0-.51S345.85,375,345.84,374.84Z" style="fill:#fff;opacity:0.6000000000000001"></path><path d="M335.43,358.79h0a18.36,18.36,0,0,0-26.36,16,4.52,4.52,0,0,0,0,.52,4.43,4.43,0,0,0,0,.51c.2,2.55,2,5,5.38,7a24.57,24.57,0,0,0,9.23,2.88c-4.78-.83-7.86-6.15-6.4-12C319,366.89,325.88,357,335.43,358.79Z" style="fill:#fff;opacity:0.30000000000000004;mix-blend-mode:lighten"></path><path d="M345.84,375.87c0-.18,0-.34,0-.51s0-.34,0-.52a18.31,18.31,0,0,0-6.24-13.29c2,2.06,6.44,9.8,1.61,15.7-3.18,3.89-18.26,9.43-30.67,2.31a12.86,12.86,0,0,0,3.91,3.31c7.17,4.15,18.83,4.15,26,0C343.84,380.91,345.63,378.42,345.84,375.87Z" style="fill:#E45858;opacity:0.1"></path><path d="M327.26,361.1c.83,1.88-.75,4.38-3.53,5.6s-5.69.69-6.51-1.19.76-4.38,3.53-5.6S326.44,359.23,327.26,361.1Z" style="fill:#fff;opacity:0.5;mix-blend-mode:lighten"></path><path d="M316.61,368.73a2.42,2.42,0,1,1-2.94-.81A2.18,2.18,0,0,1,316.61,368.73Z" style="fill:#fff;opacity:0.5;mix-blend-mode:lighten"></path><path d="M166.21,373.43a16.26,16.26,0,0,1,32.51,0c0,.16,0,.3,0,.45s0,.3,0,.46c-.19,2.25-1.77,4.46-4.76,6.18-6.34,3.67-16.65,3.67-23,0-3-1.72-4.56-3.93-4.74-6.18a3.54,3.54,0,0,1,0-.46A3.46,3.46,0,0,1,166.21,373.43Z" style="fill:#E45858"></path><path d="M166.21,373.43a16.26,16.26,0,0,1,32.51,0c0,.16,0,.3,0,.45s0,.3,0,.46c-.19,2.25-1.77,4.46-4.76,6.18-6.34,3.67-16.65,3.67-23,0-3-1.72-4.56-3.93-4.74-6.18a3.54,3.54,0,0,1,0-.46A3.46,3.46,0,0,1,166.21,373.43Z" style="fill:#fff;opacity:0.7000000000000001"></path><path d="M175.41,359.24h0a16.23,16.23,0,0,1,23.31,14.19c0,.16,0,.3,0,.45s0,.3,0,.46c-.19,2.25-1.77,4.46-4.76,6.18a21.65,21.65,0,0,1-8.16,2.55c4.22-.73,6.95-5.44,5.65-10.64C190,366.4,183.85,357.68,175.41,359.24Z" style="fill:#fff;opacity:0.30000000000000004;mix-blend-mode:lighten"></path><path d="M166.21,374.34a3.54,3.54,0,0,1,0-.46,3.46,3.46,0,0,1,0-.45,16.17,16.17,0,0,1,5.52-11.75c-1.77,1.82-5.7,8.66-1.43,13.88,2.81,3.43,16.14,8.33,27.11,2a11.22,11.22,0,0,1-3.45,2.92c-6.34,3.67-16.65,3.67-23,0C168,378.8,166.39,376.59,166.21,374.34Z" style="fill:#E45858;opacity:0.1"></path><path d="M182.63,361.28c-.73,1.66.67,3.87,3.12,5s5,.61,5.76-1.05-.67-3.87-3.12-4.95S183.36,359.62,182.63,361.28Z" style="fill:#fff;opacity:0.5;mix-blend-mode:lighten"></path><path d="M192.05,368a2.14,2.14,0,1,0,2.6-.72A1.92,1.92,0,0,0,192.05,368Z" style="fill:#fff;opacity:0.5;mix-blend-mode:lighten"></path><path d="M166.19,385.06c8.4-5.21,1.83-38.57-9.12-64.47,12.27,25.28,22.45,37.88,35.11,40s18.78-10,14.88-29.05c4.87,16.16,11.79,22.46,21.95,21.18,14.24-1.78,15.11-54.95,16.5-72.37.12,31.31,2,67.44,12.55,76.15s20.63-7.16,24.45-14.67c-3.45,18,2.41,22.87,11.42,22.57,10.66-.36,22.79-15.11,37.13-35.11C316.57,357.35,311,376.87,324,385.06,278,411.65,196.46,399.05,166.19,385.06Z" style="fill:#f5f5f5"></path><path d="M217.71,239.22c0,14.71-13.59,26.63-30.35,26.63a31.75,31.75,0,0,1-24.52-11A26.37,26.37,0,0,1,146,260.75c-13.55,0-24.54-9.64-24.54-21.53a19.1,19.1,0,0,1,1.3-6.87c-12.53-1-22.35-10.19-22.35-21.43,0-7.67,4.58-14.38,11.47-18.19a25.23,25.23,0,0,1-3.76-13.17c0-15.48,14.31-28,32-28a36.48,36.48,0,0,1,6.24.54,20,20,0,0,1-6.24-14.31c0-11.89,11-21.53,24.54-21.53a27.44,27.44,0,0,1,8.72,1.43,35.54,35.54,0,0,1-.7-6.79c0-22.46,20.75-40.66,46.35-40.66,14.44,0,27.33,5.79,35.83,14.87A52.72,52.72,0,0,1,288.7,73.16c27.13,0,49.12,19.29,49.12,43.08a38.15,38.15,0,0,1-.9,8.1,27.37,27.37,0,0,1,5.56-.59c13.26,0,24,9.43,24,21.06a19.71,19.71,0,0,1-6.65,14.52c9.59,0,17.36,6.82,17.36,15.23a13.9,13.9,0,0,1-3.13,8.69c14.58,2.73,25.51,14.07,25.51,27.67,0,15.63-14.44,28.3-32.26,28.3-.45,0-.89,0-1.33-.06a21.33,21.33,0,0,1,1.33,7.36c0,13.19-12.19,23.87-27.22,23.87-9.5,0-17.85-4.27-22.72-10.74a30,30,0,0,1-14,3.45c-15,0-27.22-10.69-27.22-23.88Z" style="fill:#E45858"></path><g style="opacity:0.30000000000000004"><path d="M379.48,220.7c-3.09,7.44-15.67,17.52-35.8,14.32,5.77,3.71,8.06,4.14,8.06,4.14.4,0,.78.06,1.17.06A28.31,28.31,0,0,0,379.48,220.7Z" style="fill:#fff"></path><path d="M379.5,220.65v0Z" style="fill:#fff"></path></g><path d="M340.1,260.39a16.43,16.43,0,0,1-13.2-6.25,11.92,11.92,0,0,0-9.53-4.49,12.5,12.5,0,0,0-5.88,1.44,17.24,17.24,0,0,1-8.14,2c-8.72,0-15.82-6.23-15.82-13.88,0-5.52-5.1-10-11.4-10H217.71c-6.29,0-11.4,4.48-11.4,10,0,9.17-8.5,16.63-18.95,16.63A19.74,19.74,0,0,1,172.05,249a11.79,11.79,0,0,0-8.17-4.07c-.35,0-.7,0-1,0a12.32,12.32,0,0,0-7.82,2.73,14.1,14.1,0,0,1-9,3.16c-7.25,0-13.14-5.17-13.14-11.53a10.12,10.12,0,0,1,.7-3.67,9,9,0,0,0-1.26-8.67,11.76,11.76,0,0,0-8.54-4.49c-6.7-.52-12-5.56-12-11.47a11.25,11.25,0,0,1,6.15-9.74c5-2.8,6.79-8.54,4-13.16a16.08,16.08,0,0,1-2.41-8.46c0-9.94,9.22-18,20.55-18a24,24,0,0,1,4,.35,12.8,12.8,0,0,0,2.22.19,11.75,11.75,0,0,0,9.89-5,9.06,9.06,0,0,0-1.39-11.62,10.73,10.73,0,0,1-3.35-7.65c0-6.36,5.89-11.53,13.14-11.53a14.73,14.73,0,0,1,4.66.77,12.82,12.82,0,0,0,4.05.66,12.41,12.41,0,0,0,7.23-2.27,9.4,9.4,0,0,0,4-9.39,27.4,27.4,0,0,1-.54-5.13c0-16.91,15.68-30.66,35-30.66a36.92,36.92,0,0,1,27,11.22,12,12,0,0,0,8.12,3.63c.23,0,.46,0,.69,0a12.27,12.27,0,0,0,7.87-2.76,40.47,40.47,0,0,1,26-9.17c20.8,0,37.72,14.84,37.72,33.08a29.52,29.52,0,0,1-.7,6.23,9.29,9.29,0,0,0,3.32,9.1,12.37,12.37,0,0,0,7.88,2.77,13,13,0,0,0,2.63-.27,14,14,0,0,1,2.93-.32c6.95,0,12.61,5,12.61,11.06a10.33,10.33,0,0,1-3.5,7.62,9.09,9.09,0,0,0-2.23,10.83,11.55,11.55,0,0,0,10.48,6.07c3.29,0,6,2.35,6,5.23a4.67,4.67,0,0,1-1.08,3,9,9,0,0,0-1.25,9.39A11.11,11.11,0,0,0,371.7,193c9.55,1.79,16.48,9.31,16.48,17.89,0,10.06-9.29,18.25-20.74,18.3h-.16l-.82,0H366a12,12,0,0,0-9.08,4,9,9,0,0,0-1.77,9.13,12.16,12.16,0,0,1,.78,4.27C355.92,254.17,348.82,260.39,340.1,260.39Z" style="fill:#fff;opacity:0.1"></path><g style="opacity:0.30000000000000004"><path d="M341.56,159.08c-2.25-4.88-7.59-7.84-13.34-8.44a21.38,21.38,0,0,0-5.81-20.8c-6.24-6-15.4-8.86-24.57-8.31A31.36,31.36,0,0,0,283,126.25c-.06,0-.1.22,0,.18a49.1,49.1,0,0,1,15.72-2.53,32.76,32.76,0,0,1,14.53,3.83c4.86,2.57,9.13,6.76,11,11.45a18.38,18.38,0,0,1,.61,12c-.26.9.89,1.69,1.84,1.64a18.59,18.59,0,0,1,14.64,6.44C341.48,159.37,341.6,159.16,341.56,159.08Z" style="fill:#fff"></path><path d="M352.71,190.39c-.56-.21-.49.81-.25,1,5.91,4.89,10.85,12,9.68,19.42-1,6.56-6.16,11.86-13.1,14.23-.48.16-.42.72-.36,1.1,1.15,7.23-1.42,13.92-9,14.83-.47.06-.42.89,0,.92a10.67,10.67,0,0,0,9.26-4.58c2.28-3.23,2.1-6.8,2-10.42a18.91,18.91,0,0,0,15-16.54C366.67,202.39,361.34,193.5,352.71,190.39Z" style="fill:#fff"></path><path d="M158.43,236.87c-3-1.68-5.52-3.69-6.84-6.67a15.65,15.65,0,0,1,.51-12.69c.34-.75-.65-1.63-1.42-1.76a30.35,30.35,0,0,1-8.92-2.34,22.73,22.73,0,0,1-7-5.23,18.45,18.45,0,0,1-3.74-6.49,19.41,19.41,0,0,1-.8-4,17.41,17.41,0,0,1-.19-4c0-.26-.27-.44-.38-.12a22.31,22.31,0,0,0-1,2.71,11.91,11.91,0,0,0-.25,2.3,19,19,0,0,0,.42,4.18A18.13,18.13,0,0,0,133,211a22.86,22.86,0,0,0,14.92,7.41c-.22,4.12-.62,8.08,1.46,12a14.56,14.56,0,0,0,8.94,6.91C158.5,237.36,158.58,237,158.43,236.87Z" style="fill:#fff"></path></g><path d="M250,109.18s10.38-39.71,63.58-30.08a54.18,54.18,0,0,0-24.88-5.94,52.72,52.72,0,0,0-33.88,11.93C245,95.81,250,109.18,250,109.18Z" style="fill:#fff;opacity:0.30000000000000004"></path><path d="M181.71,123.08s-2.07-3.21-8.37-5.41a27.44,27.44,0,0,0-8.72-1.43c-12,0-21.94,7.53-24.09,17.49a30.8,30.8,0,0,1,17.93-13.36C170.83,117.09,181.71,123.08,181.71,123.08Z" style="fill:#fff;opacity:0.30000000000000004"></path><circle cx="304.62" cy="211.25" r="30.48" transform="translate(-60.16 277.27) rotate(-45)" style="fill:#E45858"></circle><circle cx="197.88" cy="216.57" r="26.32" style="fill:#E45858"></circle><g style="opacity:0.2"><circle cx="304.62" cy="211.25" r="30.48" transform="translate(-60.16 277.27) rotate(-45)" style="fill:#fff"></circle><circle cx="197.88" cy="216.57" r="26.32" style="fill:#fff"></circle></g><circle cx="304.62" cy="211.25" r="20.48" style="fill:#fff;opacity:0.30000000000000004"></circle><circle cx="197.88" cy="216.57" r="17.84" style="fill:#fff;opacity:0.30000000000000004"></circle><path d="M231.67,391.51c0-65.58.7-129-31-184.74,0-33.15,29.62-44.43,49.36-44.43s49.36,11.28,49.36,44.43c-31.73,55.7-31,119.16-31,184.74C268.33,402.8,231.67,402.8,231.67,391.51Z" style="fill:#E45858"></path><path d="M231.67,391.51c0-65.58.7-129-31-184.74,0-33.15,29.62-44.43,49.36-44.43s49.36,11.28,49.36,44.43c-31.73,55.7-31,119.16-31,184.74C268.33,402.8,231.67,402.8,231.67,391.51Z" style="fill:#fff;opacity:0.5"></path><g style="opacity:0.30000000000000004"><path d="M274.51,232.73c-.06.13-.11.26-.16.39Z" style="fill:#E45858"></path><path d="M250,162.34c-19.74,0-49.36,11.28-49.36,44.43,2.67,4.68,5.09,9.43,7.32,14.22,6.59,3.83,13.15,17.07,16.23,27.65-8.82-32.58-5.93-34.25-2.31-36.34s9.53,17.54,9.53,17.54c0-11.8,1.6-20.93,7.4-20.53s10.07,34.72,10.31,43.92c0-49.46,9.22-50.06,12.61-43.62s2.84,19,2.84,19,2.88-20.46,12.51-15.31c9,4.8-1.17,30.59-2.57,34,7-17.27,13.14-25,17.93-27.17,2.12-4.5,4.41-9,6.92-13.37C299.36,173.62,269.74,162.34,250,162.34Z" style="fill:#E45858"></path></g><path d="M236.16,326.36c2.05,5.4,4.38,1.27,3.65-4s-5.18-32.06-5.18-32.06,2.25,9.17,5.32,10.33-.12-24.89-3.28-42.95c4.4,19,6.46,34.19,10,30.56,3.18-3.25,3.32-17.57,3.32-17.57s-1,20,3.33,23.4,8-16.94,8-16.94S257.47,298,259.66,302s5.71-9.07,5.71-9.07-6.29,26.44-5.12,28.47,4.08-5.56,4.08-5.56a300.16,300.16,0,0,0-4.23,41.26c-.44,20.48-.27,42-.27,42H237.52S240.39,345.05,236.16,326.36Z" style="fill:#fff;opacity:0.7000000000000001"></path><path d="M324.68,182.6a14.66,14.66,0,0,0,1.95-7.23,14.87,14.87,0,0,0-14.87-14.87,15.75,15.75,0,0,0-1.83.18c0-.55.09-1.1.09-1.66a26.39,26.39,0,0,0-48.82-13.91c0-.71.11-1.42.11-2.15a33.77,33.77,0,0,0-67.5-1.52,12,12,0,0,0-2.57-.3,11.55,11.55,0,0,0-9.81,17.71c-.59,0-1.18-.09-1.78-.09a28.59,28.59,0,1,0,24.16,43.81,10.57,10.57,0,0,0,18.6-2.72,22.4,22.4,0,0,0,31.16-6.37,22.34,22.34,0,0,0,27.85,4.32,10.56,10.56,0,0,0,7.44,3,10.44,10.44,0,0,0,3.76-.72c0,.24,0,.48,0,.72a21.25,21.25,0,1,0,32.09-18.25Z" style="fill:#E45858"></path><path d="M324.68,182.6a14.66,14.66,0,0,0,1.95-7.23,14.87,14.87,0,0,0-14.87-14.87,15.75,15.75,0,0,0-1.83.18c0-.55.09-1.1.09-1.66a26.39,26.39,0,0,0-48.82-13.91c0-.71.11-1.42.11-2.15a33.77,33.77,0,0,0-67.5-1.52,12,12,0,0,0-2.57-.3,11.55,11.55,0,0,0-9.81,17.71c-.59,0-1.18-.09-1.78-.09a28.59,28.59,0,1,0,24.16,43.81,10.57,10.57,0,0,0,18.6-2.72,22.4,22.4,0,0,0,31.16-6.37,22.34,22.34,0,0,0,27.85,4.32,10.56,10.56,0,0,0,7.44,3,10.44,10.44,0,0,0,3.76-.72c0,.24,0,.48,0,.72a21.25,21.25,0,1,0,32.09-18.25Z" style="fill:#fff;opacity:0.30000000000000004"></path><path d="M313.84,212.11A11.26,11.26,0,0,1,302.59,201c0-.2,0-.37,0-.53a10,10,0,0,0-13.55-9.71.7.7,0,0,1-.23.06.57.57,0,0,1-.41-.18,10,10,0,0,0-12-1.51,12.34,12.34,0,0,1-15.41-2.4,10,10,0,0,0-7.4-3.28l-.78,0a10,10,0,0,0-7.58,4.47A12.4,12.4,0,0,1,228,191.53a10,10,0,0,0-5.55-1.68,10.17,10.17,0,0,0-3.18.51,10,10,0,0,0-6.27,6.2.62.62,0,0,1-.55.44.6.6,0,0,1-.49-.28,10,10,0,0,0-8.11-4.15h-.31a10,10,0,0,0-8.15,4.66,18.57,18.57,0,1,1-15.7-28.47c.22,0,.44,0,.67,0l.5,0c.2,0,.41,0,.61,0a10,10,0,0,0,8.48-15.3,1.48,1.48,0,0,1-.26-.82,1.59,1.59,0,0,1,1.59-1.59,1.76,1.76,0,0,1,.35.06,10.48,10.48,0,0,0,2.22.24,10,10,0,0,0,10-9.55A23.77,23.77,0,0,1,251.31,143c0,.33,0,.66-.05,1l0,.55a10,10,0,0,0,18.47,5.9A16.39,16.39,0,0,1,300,159c0,.2,0,.39,0,.58l0,.46a10,10,0,0,0,10,10.62,10.14,10.14,0,0,0,1.23-.07l.78-.11a4.87,4.87,0,0,1,4.69,4.87,4.75,4.75,0,0,1-.67,2.34,10,10,0,0,0,3.61,13.48,11.24,11.24,0,0,1-5.73,20.92Z" style="fill:#fff;opacity:0.30000000000000004"></path><path d="M367.31,380.13a11.21,11.21,0,0,0-22.41,0c0,.1,0,.2,0,.31s0,.2,0,.31c.12,1.55,1.22,3.08,3.28,4.27,4.37,2.53,11.48,2.53,15.86,0,2-1.19,3.14-2.72,3.27-4.27,0-.11,0-.2,0-.31S367.32,380.23,367.31,380.13Z" style="fill:#E45858"></path><path d="M367.31,380.13a11.21,11.21,0,0,0-22.41,0c0,.1,0,.2,0,.31s0,.2,0,.31c.12,1.55,1.22,3.08,3.28,4.27,4.37,2.53,11.48,2.53,15.86,0,2-1.19,3.14-2.72,3.27-4.27,0-.11,0-.2,0-.31S367.32,380.23,367.31,380.13Z" style="fill:#fff;opacity:0.5"></path><path d="M361,370.34h0a11.19,11.19,0,0,0-16.07,9.79c0,.1,0,.2,0,.31s0,.2,0,.31c.12,1.55,1.22,3.08,3.28,4.27a15,15,0,0,0,5.62,1.75c-2.91-.5-4.79-3.75-3.89-7.33C350.94,375.28,355.15,369.27,361,370.34Z" style="fill:#fff;opacity:0.5;mix-blend-mode:lighten"></path><path d="M367.31,380.75c0-.11,0-.2,0-.31s0-.21,0-.31a11.11,11.11,0,0,0-3.81-8.1c1.22,1.25,3.93,6,1,9.57-1.94,2.36-11.13,5.74-18.69,1.4a7.85,7.85,0,0,0,2.38,2c4.37,2.53,11.48,2.53,15.86,0C366.09,383.83,367.18,382.3,367.31,380.75Z" style="fill:#E45858;opacity:0.2"></path><path d="M356,371.75c.5,1.14-.46,2.67-2.15,3.41s-3.47.42-4-.72.46-2.67,2.15-3.41S355.49,370.61,356,371.75Z" style="fill:#fff;opacity:0.5;mix-blend-mode:lighten"></path><path d="M349.5,376.4a1.48,1.48,0,1,1-1.8-.5A1.33,1.33,0,0,1,349.5,376.4Z" style="fill:#fff;opacity:0.5;mix-blend-mode:lighten"></path><path d="M350.16,388.55a15.44,15.44,0,0,0-30.86,0c0,.15,0,.28,0,.43s0,.28,0,.43c.17,2.14,1.68,4.23,4.52,5.87,6,3.49,15.8,3.49,21.84,0,2.82-1.64,4.33-3.73,4.5-5.87a4.63,4.63,0,0,0,0-.86Z" style="fill:#E45858"></path><path d="M350.16,388.55a15.44,15.44,0,0,0-30.86,0c0,.15,0,.28,0,.43s0,.28,0,.43c.17,2.14,1.68,4.23,4.52,5.87,6,3.49,15.8,3.49,21.84,0,2.82-1.64,4.33-3.73,4.5-5.87a4.63,4.63,0,0,0,0-.86Z" style="fill:#fff;opacity:0.6000000000000001"></path><path d="M341.43,375.08h0a15.42,15.42,0,0,0-22.13,13.47c0,.15,0,.28,0,.43s0,.28,0,.43c.17,2.14,1.68,4.23,4.52,5.87a20.33,20.33,0,0,0,7.74,2.42c-4-.69-6.59-5.16-5.36-10.1C327.62,381.88,333.42,373.6,341.43,375.08Z" style="fill:#fff;opacity:0.5;mix-blend-mode:lighten"></path><path d="M350.16,389.41a4.63,4.63,0,0,0,0-.86,15.3,15.3,0,0,0-5.24-11.15c1.68,1.72,5.41,8.22,1.36,13.17-2.67,3.26-15.32,7.91-25.74,1.93a10.49,10.49,0,0,0,3.28,2.78c6,3.49,15.8,3.49,21.84,0C348.48,393.64,350,391.55,350.16,389.41Z" style="fill:#E45858;opacity:0.1"></path><path d="M334.57,377c.7,1.57-.63,3.67-3,4.7s-4.78.57-5.47-1,.64-3.68,3-4.7S333.88,375.44,334.57,377Z" style="fill:#fff;opacity:0.30000000000000004;mix-blend-mode:lighten"></path><path d="M325.63,383.42A2,2,0,0,1,322,385a2,2,0,0,1,3.64-1.6Z" style="fill:#fff;opacity:0.30000000000000004;mix-blend-mode:lighten"></path><path d="M322.64,394a19.16,19.16,0,0,0-38.3,0,7,7,0,0,0,0,1.06c.22,2.66,2.09,5.26,5.61,7.29,7.47,4.33,19.61,4.33,27.1,0,3.51-2,5.38-4.63,5.59-7.29a7,7,0,0,0,0-1.06Z" style="fill:#E45858"></path><path d="M322.64,394a19.16,19.16,0,0,0-38.3,0,7,7,0,0,0,0,1.06c.22,2.66,2.09,5.26,5.61,7.29,7.47,4.33,19.61,4.33,27.1,0,3.51-2,5.38-4.63,5.59-7.29a7,7,0,0,0,0-1.06Z" style="fill:#fff;opacity:0.8"></path><path d="M311.8,377.32h0A19.12,19.12,0,0,0,284.34,394a7,7,0,0,0,0,1.06c.22,2.66,2.09,5.26,5.61,7.29a25.39,25.39,0,0,0,9.61,3c-5-.85-8.19-6.4-6.66-12.53C294.67,385.75,301.86,375.48,311.8,377.32Z" style="fill:#fff;opacity:0.30000000000000004;mix-blend-mode:lighten"></path><path d="M322.64,395.1a7,7,0,0,0,0-1.06,19.06,19.06,0,0,0-6.5-13.85c2.08,2.14,6.71,10.21,1.68,16.36-3.31,4-19,9.81-31.94,2.39a13.28,13.28,0,0,0,4.07,3.45c7.47,4.33,19.61,4.33,27.1,0C320.56,400.36,322.43,397.76,322.64,395.1Z" style="fill:#E45858;opacity:0.1"></path><path d="M303.3,379.72c.85,1.95-.79,4.57-3.68,5.84s-5.93.71-6.79-1.24.79-4.57,3.68-5.84S302.44,377.77,303.3,379.72Z" style="fill:#fff;opacity:0.30000000000000004;mix-blend-mode:lighten"></path><path d="M292.2,387.67a2.51,2.51,0,1,1-3.07-.85A2.26,2.26,0,0,1,292.2,387.67Z" style="fill:#fff;opacity:0.30000000000000004;mix-blend-mode:lighten"></path><path d="M376.8,382.75a6.78,6.78,0,0,0-13.55,0v.38a3.5,3.5,0,0,0,2,2.58,10.59,10.59,0,0,0,9.59,0,3.5,3.5,0,0,0,2-2.58v-.38Z" style="fill:#E45858"></path><path d="M376.8,382.75a6.78,6.78,0,0,0-13.55,0v.38a3.5,3.5,0,0,0,2,2.58,10.59,10.59,0,0,0,9.59,0,3.5,3.5,0,0,0,2-2.58v-.38Z" style="fill:#fff;opacity:0.2"></path><path d="M373,376.84h0a6.78,6.78,0,0,0-9.71,5.91v.38a3.5,3.5,0,0,0,2,2.58,9,9,0,0,0,3.4,1.06c-1.75-.3-2.89-2.27-2.35-4.43C366.91,379.82,369.45,376.19,373,376.84Z" style="fill:#fff;opacity:0.5;mix-blend-mode:lighten"></path><path d="M376.8,383.13v-.38a6.75,6.75,0,0,0-2.3-4.89c.73.76,2.37,3.61.59,5.78-1.17,1.43-6.72,3.47-11.29.85a4.75,4.75,0,0,0,1.43,1.22,10.59,10.59,0,0,0,9.59,0A3.5,3.5,0,0,0,376.8,383.13Z" style="fill:#455a64;opacity:0.05;mix-blend-mode:multiply"></path><path d="M370,377.69c.3.69-.28,1.62-1.31,2.07s-2.09.25-2.4-.44.28-1.62,1.31-2.07S369.65,377,370,377.69Z" style="fill:#fff;opacity:0.30000000000000004;mix-blend-mode:lighten"></path><path d="M366,380.5a.89.89,0,1,1-1.08-.3A.8.8,0,0,1,366,380.5Z" style="fill:#fff;opacity:0.30000000000000004;mix-blend-mode:lighten"></path><path d="M132.69,374.6a11.21,11.21,0,0,1,22.41,0c0,.11,0,.21,0,.32s0,.2,0,.31c-.12,1.55-1.22,3.07-3.28,4.26-4.37,2.53-11.48,2.53-15.86,0-2.05-1.19-3.14-2.71-3.27-4.26,0-.11,0-.21,0-.31S132.68,374.71,132.69,374.6Z" style="fill:#E45858"></path><path d="M132.69,374.6a11.21,11.21,0,0,1,22.41,0c0,.11,0,.21,0,.32s0,.2,0,.31c-.12,1.55-1.22,3.07-3.28,4.26-4.37,2.53-11.48,2.53-15.86,0-2.05-1.19-3.14-2.71-3.27-4.26,0-.11,0-.21,0-.31S132.68,374.71,132.69,374.6Z" style="fill:#fff;opacity:0.5"></path><path d="M139,364.82h0a11.19,11.19,0,0,1,16.07,9.78c0,.11,0,.21,0,.32s0,.2,0,.31c-.12,1.55-1.22,3.07-3.28,4.26a14.84,14.84,0,0,1-5.62,1.76c2.91-.5,4.79-3.75,3.89-7.34C149.06,369.76,144.85,363.74,139,364.82Z" style="fill:#fff;opacity:0.5;mix-blend-mode:lighten"></path><path d="M132.69,375.23c0-.11,0-.21,0-.31s0-.21,0-.32a11.11,11.11,0,0,1,3.81-8.1c-1.22,1.25-3.93,6-1,9.57,1.94,2.37,11.13,5.74,18.69,1.41a7.83,7.83,0,0,1-2.38,2c-4.37,2.53-11.48,2.53-15.86,0C133.91,378.3,132.82,376.78,132.69,375.23Z" style="fill:#E45858;opacity:0.2"></path><path d="M144,366.23c-.5,1.14.46,2.67,2.15,3.41s3.47.42,4-.72-.46-2.67-2.15-3.42S144.51,365.08,144,366.23Z" style="fill:#fff;opacity:0.30000000000000004;mix-blend-mode:lighten"></path><path d="M150.5,370.88a1.48,1.48,0,1,0,1.8-.5A1.34,1.34,0,0,0,150.5,370.88Z" style="fill:#fff;opacity:0.30000000000000004;mix-blend-mode:lighten"></path><path d="M151.89,383a15.44,15.44,0,0,1,30.86,0,3.17,3.17,0,0,1,0,.43,3,3,0,0,1,0,.43c-.17,2.14-1.68,4.24-4.51,5.88-6,3.48-15.81,3.48-21.84,0-2.83-1.64-4.33-3.74-4.51-5.88,0-.14,0-.28,0-.43S151.88,383.12,151.89,383Z" style="fill:#E45858"></path><path d="M151.89,383a15.44,15.44,0,0,1,30.86,0,3.17,3.17,0,0,1,0,.43,3,3,0,0,1,0,.43c-.17,2.14-1.68,4.24-4.51,5.88-6,3.48-15.81,3.48-21.84,0-2.83-1.64-4.33-3.74-4.51-5.88,0-.14,0-.28,0-.43S151.88,383.12,151.89,383Z" style="fill:#fff;opacity:0.6000000000000001"></path><path d="M160.63,369.5h0A15.41,15.41,0,0,1,182.75,383a3.17,3.17,0,0,1,0,.43,3,3,0,0,1,0,.43c-.17,2.14-1.68,4.24-4.51,5.88a20.55,20.55,0,0,1-7.75,2.41c4-.69,6.6-5.16,5.37-10.09C174.43,376.3,168.64,368,160.63,369.5Z" style="fill:#fff;opacity:0.5;mix-blend-mode:lighten"></path><path d="M151.89,383.83c0-.14,0-.28,0-.43s0-.28,0-.43a15.39,15.39,0,0,1,5.24-11.15c-1.67,1.72-5.4,8.22-1.35,13.18,2.66,3.25,15.32,7.9,25.73,1.93a10.69,10.69,0,0,1-3.27,2.78c-6,3.48-15.81,3.48-21.84,0C153.57,388.07,152.07,386,151.89,383.83Z" style="fill:#E45858;opacity:0.15"></path><path d="M167.48,371.44c-.69,1.57.64,3.68,3,4.7s4.77.58,5.46-1-.63-3.68-3-4.7S168.17,369.87,167.48,371.44Z" style="fill:#fff;opacity:0.30000000000000004;mix-blend-mode:lighten"></path><path d="M176.42,377.84a2,2,0,0,0,3.64,1.6,2,2,0,0,0-3.64-1.6Z" style="fill:#fff;opacity:0.30000000000000004;mix-blend-mode:lighten"></path><path d="M180.5,391.73a19.16,19.16,0,0,1,38.3,0,7,7,0,0,1,0,1.06c-.22,2.66-2.08,5.26-5.6,7.29-7.48,4.32-19.62,4.32-27.11,0-3.51-2-5.37-4.63-5.59-7.29a7,7,0,0,1,0-1.06Z" style="fill:#E45858"></path><path d="M180.5,391.73a19.16,19.16,0,0,1,38.3,0,7,7,0,0,1,0,1.06c-.22,2.66-2.08,5.26-5.6,7.29-7.48,4.32-19.62,4.32-27.11,0-3.51-2-5.37-4.63-5.59-7.29a7,7,0,0,1,0-1.06Z" style="fill:#fff;opacity:0.8"></path><path d="M191.34,375h0a19.12,19.12,0,0,1,27.46,16.72,7,7,0,0,1,0,1.06c-.22,2.66-2.08,5.26-5.6,7.29a25.44,25.44,0,0,1-9.62,3c5-.85,8.19-6.4,6.66-12.53C208.47,383.44,201.28,373.17,191.34,375Z" style="fill:#fff;opacity:0.30000000000000004;mix-blend-mode:lighten"></path><path d="M180.5,392.79a7,7,0,0,1,0-1.06,19.08,19.08,0,0,1,6.5-13.85c-2.08,2.14-6.71,10.21-1.68,16.36,3.31,4,19,9.81,31.94,2.39a13.23,13.23,0,0,1-4.06,3.45c-7.48,4.32-19.62,4.32-27.11,0C182.58,398.05,180.72,395.45,180.5,392.79Z" style="fill:#E45858;opacity:0.1"></path><path d="M199.84,377.41c-.85,1.95.79,4.57,3.68,5.83s5.93.72,6.79-1.23-.79-4.57-3.68-5.84S200.7,375.46,199.84,377.41Z" style="fill:#fff;opacity:0.30000000000000004;mix-blend-mode:lighten"></path><path d="M210.94,385.36a2.52,2.52,0,1,0,3.07-.85A2.27,2.27,0,0,0,210.94,385.36Z" style="fill:#fff;opacity:0.30000000000000004;mix-blend-mode:lighten"></path><path d="M287.81,395.16a17.49,17.49,0,0,0-35,0c0,.17,0,.32,0,.49s0,.32,0,.49c.2,2.42,1.91,4.8,5.12,6.65,6.82,3.95,17.91,3.95,24.75,0,3.2-1.85,4.9-4.23,5.1-6.65a6,6,0,0,0,0-1Z" style="fill:#E45858"></path><path d="M287.81,395.16a17.49,17.49,0,0,0-35,0c0,.17,0,.32,0,.49s0,.32,0,.49c.2,2.42,1.91,4.8,5.12,6.65,6.82,3.95,17.91,3.95,24.75,0,3.2-1.85,4.9-4.23,5.1-6.65a6,6,0,0,0,0-1Z" style="fill:#fff;opacity:0.9"></path><path d="M277.92,379.9h0a17.47,17.47,0,0,0-25.08,15.26c0,.17,0,.32,0,.49s0,.32,0,.49c.2,2.42,1.91,4.8,5.12,6.65a23,23,0,0,0,8.78,2.74c-4.54-.78-7.48-5.85-6.08-11.44C262.28,387.6,268.84,378.22,277.92,379.9Z" style="fill:#fff;opacity:0.5;mix-blend-mode:lighten"></path><path d="M287.81,396.14a6,6,0,0,0,0-1,17.37,17.37,0,0,0-5.94-12.63c1.9,2,6.13,9.31,1.54,14.93-3,3.69-17.36,9-29.16,2.19a12,12,0,0,0,3.71,3.14c6.82,3.95,17.91,3.95,24.75,0C285.91,400.94,287.61,398.56,287.81,396.14Z" style="fill:#E45858;opacity:0.1"></path><path d="M270.15,382.1c.78,1.78-.72,4.16-3.36,5.32s-5.41.65-6.19-1.13.72-4.16,3.35-5.32S269.37,380.31,270.15,382.1Z" style="fill:#fff;opacity:0.5;mix-blend-mode:lighten"></path><path d="M260,389.35a2.3,2.3,0,1,1-2.8-.77A2.08,2.08,0,0,1,260,389.35Z" style="fill:#fff;opacity:0.5;mix-blend-mode:lighten"></path><path d="M214.78,397.07a16.64,16.64,0,0,1,33.26,0c0,.16,0,.3,0,.46s0,.3,0,.46c-.19,2.31-1.81,4.57-4.87,6.33-6.49,3.75-17,3.75-23.54,0-3-1.76-4.66-4-4.85-6.33,0-.16,0-.3,0-.46S214.77,397.23,214.78,397.07Z" style="fill:#E45858"></path><path d="M214.78,397.07a16.64,16.64,0,0,1,33.26,0c0,.16,0,.3,0,.46s0,.3,0,.46c-.19,2.31-1.81,4.57-4.87,6.33-6.49,3.75-17,3.75-23.54,0-3-1.76-4.66-4-4.85-6.33,0-.16,0-.3,0-.46S214.77,397.23,214.78,397.07Z" style="fill:#fff;opacity:0.9"></path><path d="M224.19,382.55h0A16.62,16.62,0,0,1,248,397.07c0,.16,0,.3,0,.46s0,.3,0,.46c-.19,2.31-1.81,4.57-4.87,6.33a22.19,22.19,0,0,1-8.34,2.61c4.31-.75,7.1-5.57,5.78-10.89C239.07,389.87,232.83,381,224.19,382.55Z" style="fill:#fff;opacity:0.5;mix-blend-mode:lighten"></path><path d="M214.78,398c0-.16,0-.3,0-.46s0-.3,0-.46a16.54,16.54,0,0,1,5.65-12c-1.81,1.85-5.83,8.86-1.46,14.19,2.87,3.52,16.51,8.53,27.73,2.09a11.63,11.63,0,0,1-3.53,3c-6.49,3.75-17,3.75-23.54,0C216.59,402.56,215,400.3,214.78,398Z" style="fill:#E45858;opacity:0.1"></path><path d="M231.58,384.64c-.75,1.69.69,4,3.19,5.06s5.15.62,5.9-1.07-.69-4-3.2-5.07S232.32,382.94,231.58,384.64Z" style="fill:#fff;opacity:0.5;mix-blend-mode:lighten"></path><path d="M241.22,391.54a2.18,2.18,0,1,0,2.66-.74A2,2,0,0,0,241.22,391.54Z" style="fill:#fff;opacity:0.5;mix-blend-mode:lighten"></path><path d="M257.93,402.88a6.77,6.77,0,0,0-13.54,0,1.21,1.21,0,0,0,0,.19,1.28,1.28,0,0,0,0,.19,3.47,3.47,0,0,0,2,2.58,10.63,10.63,0,0,0,9.58,0,3.5,3.5,0,0,0,2-2.58,1.28,1.28,0,0,0,0-.19A1.21,1.21,0,0,0,257.93,402.88Z" style="fill:#E45858"></path><path d="M257.93,402.88a6.77,6.77,0,0,0-13.54,0,1.21,1.21,0,0,0,0,.19,1.28,1.28,0,0,0,0,.19,3.47,3.47,0,0,0,2,2.58,10.63,10.63,0,0,0,9.58,0,3.5,3.5,0,0,0,2-2.58,1.28,1.28,0,0,0,0-.19A1.21,1.21,0,0,0,257.93,402.88Z" style="fill:#fff;opacity:0.9"></path><path d="M254.1,397h0a6.76,6.76,0,0,0-9.71,5.91,1.21,1.21,0,0,0,0,.19,1.28,1.28,0,0,0,0,.19,3.47,3.47,0,0,0,2,2.58,9.17,9.17,0,0,0,3.4,1.06c-1.76-.31-2.9-2.27-2.36-4.44C248,400,250.58,396.32,254.1,397Z" style="fill:#fff;opacity:0.6000000000000001;mix-blend-mode:lighten"></path><path d="M257.93,403.26a1.28,1.28,0,0,0,0-.19,1.21,1.21,0,0,0,0-.19,6.71,6.71,0,0,0-2.3-4.89c.74.75,2.37,3.6.6,5.78-1.17,1.43-6.73,3.47-11.3.85a4.82,4.82,0,0,0,1.44,1.22,10.63,10.63,0,0,0,9.58,0A3.5,3.5,0,0,0,257.93,403.26Z" style="fill:#E45858;opacity:0.1"></path><path d="M251.09,397.82c.3.69-.28,1.61-1.3,2.06s-2.1.25-2.4-.44.28-1.61,1.3-2.06S250.79,397.13,251.09,397.82Z" style="fill:#fff;opacity:0.5;mix-blend-mode:lighten"></path><path d="M247.17,400.63a.89.89,0,1,1-1.09-.3A.81.81,0,0,1,247.17,400.63Z" style="fill:#fff;opacity:0.5;mix-blend-mode:lighten"></path><path d="M123.2,379.34a6.78,6.78,0,0,1,13.55,0v.37a3.5,3.5,0,0,1-2,2.58,10.59,10.59,0,0,1-9.59,0,3.5,3.5,0,0,1-2-2.58v-.37Z" style="fill:#E45858"></path><path d="M123.2,379.34a6.78,6.78,0,0,1,13.55,0v.37a3.5,3.5,0,0,1-2,2.58,10.59,10.59,0,0,1-9.59,0,3.5,3.5,0,0,1-2-2.58v-.37Z" style="fill:#fff;opacity:0.2"></path><path d="M127,373.42h0a6.86,6.86,0,0,1,2.94-.67,6.78,6.78,0,0,1,6.77,6.59v.37a3.5,3.5,0,0,1-2,2.58,9,9,0,0,1-3.4,1.06c1.75-.3,2.89-2.26,2.35-4.43C133.09,376.41,130.55,372.78,127,373.42Z" style="fill:#fff;opacity:0.5;mix-blend-mode:lighten"></path><path d="M123.2,379.71v-.37a6.77,6.77,0,0,1,2.3-4.9c-.73.76-2.37,3.61-.59,5.78,1.17,1.43,6.72,3.47,11.29.85a4.75,4.75,0,0,1-1.43,1.22,10.59,10.59,0,0,1-9.59,0A3.5,3.5,0,0,1,123.2,379.71Z" style="fill:#455a64;opacity:0.05;mix-blend-mode:multiply"></path><path d="M130,374.28c-.3.69.28,1.61,1.31,2.06s2.09.25,2.4-.44-.28-1.61-1.31-2.06S130.35,373.58,130,374.28Z" style="fill:#fff;opacity:0.30000000000000004;mix-blend-mode:lighten"></path><path d="M134,377.09a.8.8,0,0,0,.51,1,.81.81,0,0,0,1.09-.3.83.83,0,0,0-.52-1A.81.81,0,0,0,134,377.09Z" style="fill:#fff;opacity:0.30000000000000004;mix-blend-mode:lighten"></path></g></g><g id="freepik--Lines--inject-39"><g id="freepik--lines--inject-39"><path d="M146,346.41c-4.78-3.45-6.39-4.46-11.12-8l-7.12-5.22q-1.78-1.29-3.54-2.64l-1.72-1.38a3.73,3.73,0,0,1-1.41-1.78l.25-.34a3.89,3.89,0,0,1,2.09.91l1.78,1.31q1.74,1.35,3.45,2.74l6.88,5.54c4.6,3.68,6,5,10.52,8.74Z" style="fill:#ebebeb"></path><path d="M147.29,327.49c-3.43-4.78-3.6-4.68-7-9.49l-5.11-7.21q-1.29-1.79-2.52-3.62l-1.19-1.86a3.75,3.75,0,0,1-.78-2.14l.35-.23a3.76,3.76,0,0,1,1.69,1.52l1.27,1.8c.82,1.22,1.63,2.46,2.41,3.7l4.77,7.43c3.2,4.94,3,5.07,6.18,10.05Z" style="fill:#ebebeb"></path><path d="M354,346.33c4.56-3.72,4.71-4.07,9.3-7.75l6.88-5.54q1.71-1.4,3.46-2.74l1.78-1.31a3.75,3.75,0,0,1,2.08-.91l.26.34a3.75,3.75,0,0,1-1.42,1.78l-1.72,1.38q-1.74,1.35-3.54,2.64L364,339.44c-4.73,3.5-5.13,3.52-9.9,7Z" style="fill:#ebebeb"></path><path d="M352.68,327.44c3.14-5,2.83-4.86,6-9.8l4.76-7.43c.79-1.25,1.6-2.48,2.41-3.7l1.28-1.8a3.71,3.71,0,0,1,1.69-1.52l.35.23a3.78,3.78,0,0,1-.78,2.14l-1.19,1.86q-1.25,1.81-2.52,3.62l-5.11,7.2c-3.38,4.82-3.4,4.47-6.84,9.25Z" style="fill:#ebebeb"></path><path d="M395.87,175.71c5.81.24,11.61.81,17.39,1.6,2.88.42,5.76.93,8.62,1.55a54.28,54.28,0,0,1,8.46,2.51,17.15,17.15,0,0,1,4,2.2,5.29,5.29,0,0,1,1.63,2,3.31,3.31,0,0,1-.06,2.82,8.89,8.89,0,0,1-3.48,3.32,22.14,22.14,0,0,1-4.15,1.85,62.19,62.19,0,0,1-8.58,2.14c-2.89.55-5.78,1-8.67,1.36-11.6,1.43-23.23,2.06-34.86,2.44s-23.27.42-34.9.22c11.62-.59,23.23-1.14,34.83-1.78,5.79-.36,11.59-.68,17.37-1.16s11.56-1,17.3-1.7a99,99,0,0,0,16.91-3.3,20.81,20.81,0,0,0,3.83-1.63,7.24,7.24,0,0,0,2.83-2.52,1.55,1.55,0,0,0,.07-1.39,3.87,3.87,0,0,0-1.12-1.36,15.17,15.17,0,0,0-3.56-2.07,57.67,57.67,0,0,0-8.16-2.67c-2.8-.72-5.63-1.32-8.48-1.86C407.41,177.16,401.64,176.4,395.87,175.71Z" style="fill:#ebebeb"></path><path d="M112.93,157.48c-5.81-.25-11.61-.81-17.39-1.61-2.88-.41-5.76-.92-8.62-1.55a53.8,53.8,0,0,1-8.46-2.5,16.83,16.83,0,0,1-4-2.21,5.34,5.34,0,0,1-1.63-2,3.35,3.35,0,0,1,.06-2.82,8.82,8.82,0,0,1,3.48-3.32,22.14,22.14,0,0,1,4.15-1.85,63.84,63.84,0,0,1,8.59-2.15c2.88-.54,5.77-1,8.67-1.35,11.59-1.43,23.22-2.06,34.85-2.45s23.27-.41,34.9-.21c-11.62.58-23.23,1.13-34.83,1.78-5.79.35-11.59.68-17.37,1.16s-11.56,1-17.3,1.7a98,98,0,0,0-16.91,3.3,21.07,21.07,0,0,0-3.83,1.62,7.4,7.4,0,0,0-2.83,2.52,1.57,1.57,0,0,0-.06,1.4,3.84,3.84,0,0,0,1.11,1.36,15.53,15.53,0,0,0,3.56,2.07,57.67,57.67,0,0,0,8.16,2.67c2.8.72,5.64,1.31,8.48,1.85C101.4,156,107.16,156.79,112.93,157.48Z" style="fill:#ebebeb"></path></g></g><g id="freepik--Smoke--inject-39"><g id="freepik--smoke--inject-39"><path d="M478.57,224.05c-1.24-6.27-2.83-12.75-4.75-19.36h0c-8.43,4.14-13.6,13.66-13.6,22.62a27.92,27.92,0,0,0,3.64,13.78l-.42,0a12.7,12.7,0,0,0-12.76,12.09A17.41,17.41,0,0,0,439.41,249c-.24,0-.46,0-.69,0l-.67,0-.67.07a11.31,11.31,0,0,0-1.3.19l-.56.11-.85.22c-.38.09-.74.22-1.1.34-.19.07-.4.14-.59.23-.39.14-.76.3-1.15.48-.19.09-.4.2-.59.31s-.37.19-.56.3l-.54.33a12.32,12.32,0,0,0-1.55,1.08,5.58,5.58,0,0,0-.47.38,4.57,4.57,0,0,0-.49.42,12.32,12.32,0,0,0-.9.87l-.36.38a17.07,17.07,0,0,0-2.59,3.77l-.23.46-.27.6c-.1.26-.2.51-.29.77-.2.51-.35,1-.5,1.55a.07.07,0,0,1,0,.05c-.11.43-.2.86-.28,1.3,0,.11,0,.22-.05.33s-.07.48-.09.72a15.07,15.07,0,0,0-.11,1.91c0,.17,0,.33,0,.5a29.85,29.85,0,0,0-5.39-.5,28.73,28.73,0,0,0-16.4,5.08,23.91,23.91,0,0,0-2.29,1.75l0,0c-.24.21-.47.41-.7.63a8.58,8.58,0,0,0-.7.66c-.24.21-.46.44-.68.67s-.44.47-.66.7c-.48.52-.92,1.05-1.35,1.61l-.41.55a1.37,1.37,0,0,0-.15.21c-.32.42-.61.84-.89,1.29a1.82,1.82,0,0,0-.15.23l-.32.52c-.38.64-.74,1.28-1.06,1.94-.12.24-.24.49-.35.73l-.12.26c-.12.26-.23.52-.33.77-.27.64-.52,1.3-.73,2-.09.25-.17.52-.24.79s-.2.65-.28,1-.2.83-.29,1.26-.16.8-.22,1.21c0,.09,0,.18,0,.27-.06.38-.11.73-.15,1.12a.13.13,0,0,0,0,.06c0,.14,0,.3,0,.45,0,.35-.06.71-.08,1.07v.11c0,.48,0,.94,0,1.41A28.07,28.07,0,0,0,398,316.1a28.55,28.55,0,0,0,5,3.38,23.83,23.83,0,0,0,2.22,1.06c.75.32,1.52.61,2.31.88.39.12.78.25,1.18.36.81.23,1.63.42,2.45.58q-.27,1-.48,2.07c-.11.61-.22,1.22-.3,1.83a29.94,29.94,0,0,0-.28,4.05,31.28,31.28,0,0,0,9.49,22.44c.61.61,1.26,1.18,1.92,1.74s1.35,1.07,2.06,1.57a32.07,32.07,0,0,0,9.43,4.56c.43.13.86.24,1.29.35A14.37,14.37,0,0,0,429,372.14a9.83,9.83,0,0,0,.09,1.34c-.52,0-1-.06-1.56-.06A17.42,17.42,0,0,0,415.73,378a35,35,0,0,0-17.33-19.24l-.23-.11-.9-.43c-.41-.18-.82-.37-1.23-.53s-.84-.33-1.26-.49-1-.36-1.54-.52l-1-.31-1.32-.34h0c-.87-.2-1.77-.38-2.66-.52a36.9,36.9,0,0,0-5.6-.44,35.38,35.38,0,0,0-24.91,10.18,34.47,34.47,0,0,0-7.2,10.26c-.2.44-.4.88-.58,1.33s-.47,1.2-.68,1.82a31.93,31.93,0,0,0-1.31,5c-.11.61-.2,1.21-.27,1.82a32.58,32.58,0,0,0-.28,4.33,33.56,33.56,0,0,0,.42,5.34c.07.45.15.88.24,1.31a34.49,34.49,0,0,0,1,3.79h0a17.49,17.49,0,0,0-7.37,3.43,35.16,35.16,0,0,0-3.88-4.72c-.72-.73-1.46-1.42-2.25-2.08a34.56,34.56,0,0,0-33.21-6.38c-.53.18-1,.36-1.57.57s-1,.41-1.53.64-1,.46-1.49.71c-.25.12-.48.24-.73.38-1,.51-1.9,1.08-2.81,1.68-.45.3-.91.62-1.34.94l-.66.49c-.42.34-.84.68-1.25,1-.62.54-1.23,1.08-1.8,1.66l-.58.58a33.3,33.3,0,0,0-9.42,23.22,35,35,0,0,0,.23,3.86,17.53,17.53,0,0,0-27.76,6.22,17.53,17.53,0,0,0-25.76-7.75c0-.21,0-.42,0-.6,0-21.75-17.89-39.38-39.93-39.38a40.07,40.07,0,0,0-20.66,5.68,27.07,27.07,0,0,0-7.14-12.72,27.76,27.76,0,0,0-19.79-8.22c-.49,0-1,0-1.47,0s-.9,0-1.35.1-.63.07-.95.13a19.63,19.63,0,0,0-2.67.49l-.88.23h0A27.83,27.83,0,0,0,118.2,378a17.58,17.58,0,0,0-11.5-4.54h0c.12-.26.22-.54.33-.82a38.24,38.24,0,0,0,.4-25.82c-.41-1.19-.88-2.36-1.4-3.5-.26-.57-.53-1.13-.82-1.68a35.76,35.76,0,0,0-1.88-3.23c-.52-.79-1-1.55-1.61-2.29-.38-.49-.76-1-1.16-1.46a39.11,39.11,0,0,0-5.3-5.23q-.72-.58-1.47-1.14a39.54,39.54,0,0,0-45.95-.59,27.7,27.7,0,0,0-13.52-9.59,39.75,39.75,0,0,0,7.09-10.54A39.27,39.27,0,0,0,45,291.14c0-.95,0-1.88-.1-2.8,0-.44-.07-.88-.12-1.31s-.08-.8-.13-1.2-.1-.59-.14-.88-.09-.54-.13-.81c-.13-.71-.28-1.42-.44-2.11-.05-.21-.11-.41-.16-.62l-.24-.92c-.12-.39-.23-.8-.35-1.18l0-.08c-.13-.42-.26-.83-.42-1.23-.31-.89-.65-1.76-1-2.62-.14-.34-.29-.68-.46-1s-.37-.78-.58-1.16-.34-.68-.53-1c0-.1-.11-.2-.17-.3l-.55-.95-.68-1.09c-.26-.41-.52-.82-.8-1.21s-.44-.61-.67-.92-.57-.75-.85-1.11c-.52-.64-1-1.27-1.6-1.88a39.29,39.29,0,0,0-4.69-4.42c-.33-.27-.67-.53-1-.79s-.7-.53-1.07-.79l-.46-.31h0a29,29,0,0,0-9.09-3.81c-4.79,45.74,3.11,90.1,25.9,124.61,78.73,119.24,212,117.27,293.26,93C457.39,436.47,497.09,318.16,478.57,224.05Z" style="fill:#37474f"></path><g style="opacity:0.5"><path d="M471.81,340.6h0a226.07,226.07,0,0,0-41.76-88.87,12,12,0,0,0-1.46,1,5.58,5.58,0,0,0-.47.38,4.64,4.64,0,0,0-.5.42c-.3.28-.61.56-.89.87l-.36.38a17.07,17.07,0,0,0-2.59,3.77,4.93,4.93,0,0,0-.23.46c-.09.2-.19.4-.27.6l-.3.77c-.19.51-.35,1-.49,1.55a.07.07,0,0,1,0,.05c-.11.43-.21.86-.28,1.3,0,.11,0,.22-.05.33s-.07.48-.09.72a13.42,13.42,0,0,0-.12,1.91c0,.17,0,.33,0,.5a28.59,28.59,0,0,0-5-.49h-.36a28.72,28.72,0,0,0-16.39,5.08,23.91,23.91,0,0,0-2.29,1.75l0,0a.5.5,0,0,0-.08.07c-.21.18-.42.36-.62.56a7.21,7.21,0,0,0-.7.66,8.61,8.61,0,0,0-.68.67c-.23.23-.44.47-.66.7a20.54,20.54,0,0,0-1.35,1.61c-.14.18-.28.36-.41.55a1.37,1.37,0,0,0-.15.21c-.32.42-.61.84-.89,1.29a1.82,1.82,0,0,0-.15.23l-.32.52c-.38.64-.74,1.28-1.06,1.94-.13.24-.24.49-.35.73a2.1,2.1,0,0,1-.13.26l-.33.77c-.26.64-.51,1.3-.73,2-.08.26-.16.52-.23.79s-.2.65-.28,1-.21.83-.29,1.26-.16.8-.22,1.21c0,.09,0,.18-.05.27-.06.38-.1.74-.14,1.12a.13.13,0,0,0,0,.06c0,.14,0,.3,0,.45s0,.26,0,.39,0,.45,0,.68v.11c0,.48,0,.94,0,1.41A28.27,28.27,0,0,0,403,319.48c.31.17.63.33.95.48s.83.4,1.26.58c.75.32,1.53.61,2.32.88.39.12.78.25,1.18.36.8.23,1.63.42,2.45.58q-.27,1-.48,2.07t-.3,1.83a28.4,28.4,0,0,0-.28,4.05,31.09,31.09,0,0,0,1.23,8.69c.15.5.31,1,.47,1.5a31.51,31.51,0,0,0,7.79,12.25c.6.61,1.25,1.18,1.92,1.74s1.35,1.07,2.06,1.57a32.13,32.13,0,0,0,9.42,4.56c.44.13.87.24,1.3.35A14.37,14.37,0,0,0,429,372.14a11.76,11.76,0,0,0,.08,1.34c-.51,0-1-.06-1.55-.06a17.34,17.34,0,0,0-8.83,2.39,17.12,17.12,0,0,0-2.92,2.14,35,35,0,0,0-17.33-19.24,1.75,1.75,0,0,0-.24-.11l-.89-.43-1-.44-.23-.09c-.41-.17-.83-.33-1.25-.48s-1-.37-1.54-.53l-1-.31-1.32-.34h0c-.88-.2-1.77-.38-2.67-.52a36.77,36.77,0,0,0-5.59-.44,35.92,35.92,0,0,0-6.78.64h0a35.27,35.27,0,0,0-17.69,9.11c-.15.13-.3.28-.44.42a34.68,34.68,0,0,0-7.21,10.26c-.19.44-.39.88-.57,1.33s-.48,1.2-.68,1.82a31.93,31.93,0,0,0-1.31,5c-.11.61-.21,1.21-.28,1.82a34.35,34.35,0,0,0-.28,4.33,33.56,33.56,0,0,0,.43,5.34c.07.45.15.88.23,1.31a36.94,36.94,0,0,0,1,3.79h0a17.48,17.48,0,0,0-7.38,3.43c-.25-.37-.51-.74-.79-1.1a34.33,34.33,0,0,0-3.09-3.62c-.72-.73-1.46-1.42-2.24-2.08a34.52,34.52,0,0,0-22.26-8.15,34.51,34.51,0,0,0-10.38,1.59l-.57.18c-.53.18-1,.36-1.57.57s-1,.41-1.53.64-1,.46-1.49.71c-.25.12-.49.24-.73.38a31.59,31.59,0,0,0-2.81,1.68c-.46.3-.91.62-1.34.94-.23.16-.44.33-.66.49-.42.34-.84.68-1.25,1-.62.54-1.23,1.08-1.81,1.66l-.57.58a33.26,33.26,0,0,0-9.43,23.22,34.93,34.93,0,0,0,.24,3.86,17.53,17.53,0,0,0-27.76,6.22,17.54,17.54,0,0,0-25.77-7.75c0-.21,0-.42,0-.6a39.47,39.47,0,0,0-28.32-37.69,40.8,40.8,0,0,0-19.46-.93,39.78,39.78,0,0,0-12.8,4.92,27,27,0,0,0-5.95-11.43c-.38-.44-.78-.88-1.19-1.29A27.79,27.79,0,0,0,141,369.56c-.9-.09-1.81-.13-2.74-.13-.49,0-1,0-1.47,0s-.91,0-1.35.1-.64.07-1,.13a19.49,19.49,0,0,0-2.66.49l-.89.23H131a27.68,27.68,0,0,0-10.53,5.43,27,27,0,0,0-2.3,2.11,17.54,17.54,0,0,0-11.49-4.54h0c.11-.26.22-.54.33-.82a38.24,38.24,0,0,0,.4-25.82c-.11-.33-.22-.65-.35-1-.32-.86-.68-1.7-1-2.53-.27-.57-.53-1.13-.82-1.68-.58-1.11-1.2-2.19-1.88-3.23-.52-.79-1-1.55-1.61-2.29-.38-.49-.76-1-1.16-1.46a40.3,40.3,0,0,0-5.3-5.23q-.72-.58-1.47-1.14c-.28-.2-.57-.41-.86-.6h0a39.48,39.48,0,0,0-22.53-7.05,39.11,39.11,0,0,0-22.57,7.08,27.51,27.51,0,0,0-13.22-9.49,225,225,0,0,0-7.13,26.61h0a154,154,0,0,0,16.88,34.43c78.73,119.24,212,117.27,293.26,93C410,450.63,453.08,398.91,471.81,340.6Z" style="fill:#E45858;opacity:0.1"></path><path d="M44.94,292.65a228,228,0,0,0-10.1,24.83,39.8,39.8,0,0,0,6.55-10A38.9,38.9,0,0,0,44.94,292.65Z" style="fill:#E45858;opacity:0.1"></path><path d="M457.5,374.83v0a206.8,206.8,0,0,0-40.55-108.54h-.36a28.72,28.72,0,0,0-16.39,5.08,23.91,23.91,0,0,0-2.29,1.75l0,0a.5.5,0,0,0-.08.07c-.21.18-.42.36-.62.56a7.21,7.21,0,0,0-.7.66,8.61,8.61,0,0,0-.68.67c-.23.23-.44.47-.66.7a20.54,20.54,0,0,0-1.35,1.61c-.14.18-.28.36-.41.55a1.37,1.37,0,0,0-.15.21c-.32.42-.61.84-.89,1.29a1.82,1.82,0,0,0-.15.23l-.32.52c-.38.64-.74,1.28-1.06,1.94-.13.24-.24.49-.35.73a2.1,2.1,0,0,1-.13.26l-.33.77c-.26.64-.51,1.3-.73,2-.08.26-.16.52-.23.79s-.2.65-.28,1-.21.83-.29,1.26-.16.8-.22,1.21c0,.09,0,.18-.05.27-.06.38-.1.74-.14,1.12a.13.13,0,0,0,0,.06c0,.14,0,.3,0,.45s0,.26,0,.39,0,.45,0,.68v.11c0,.48,0,.94,0,1.41A28.27,28.27,0,0,0,403,319.48c.31.17.63.33.95.48s.83.4,1.26.58c.75.32,1.53.61,2.32.88.39.12.78.25,1.18.36.8.23,1.63.42,2.45.58q-.27,1-.48,2.07t-.3,1.83a28.4,28.4,0,0,0-.28,4.05,31.09,31.09,0,0,0,1.23,8.69c.15.5.31,1,.47,1.5a31.51,31.51,0,0,0,7.79,12.25c.6.61,1.25,1.18,1.92,1.74s1.35,1.07,2.06,1.57a32.13,32.13,0,0,0,9.42,4.56c.44.13.87.24,1.3.35A14.37,14.37,0,0,0,429,372.14a11.76,11.76,0,0,0,.08,1.34c-.51,0-1-.06-1.55-.06a17.34,17.34,0,0,0-8.83,2.39,17.12,17.12,0,0,0-2.92,2.14,35,35,0,0,0-17.33-19.24,1.75,1.75,0,0,0-.24-.11l-.89-.43-1-.44-.23-.09c-.41-.17-.83-.33-1.25-.48s-1-.37-1.54-.53l-1-.31-1.32-.34h0c-.88-.2-1.77-.38-2.67-.52a36.77,36.77,0,0,0-5.59-.44,35.92,35.92,0,0,0-6.78.64h0a35.27,35.27,0,0,0-17.69,9.11c-.15.13-.3.28-.44.42a34.68,34.68,0,0,0-7.21,10.26c-.19.44-.39.88-.57,1.33s-.48,1.2-.68,1.82a31.93,31.93,0,0,0-1.31,5c-.11.61-.21,1.21-.28,1.82a34.35,34.35,0,0,0-.28,4.33,33.56,33.56,0,0,0,.43,5.34c.07.45.15.88.23,1.31a36.94,36.94,0,0,0,1,3.79h0a17.48,17.48,0,0,0-7.38,3.43c-.25-.37-.51-.74-.79-1.1a34.33,34.33,0,0,0-3.09-3.62c-.72-.73-1.46-1.42-2.24-2.08a34.52,34.52,0,0,0-22.26-8.15,34.51,34.51,0,0,0-10.38,1.59l-.57.18c-.53.18-1,.36-1.57.57s-1,.41-1.53.64-1,.46-1.49.71c-.25.12-.49.24-.73.38a31.59,31.59,0,0,0-2.81,1.68c-.46.3-.91.62-1.34.94-.23.16-.44.33-.66.49-.42.34-.84.68-1.25,1-.62.54-1.23,1.08-1.81,1.66l-.57.58a33.26,33.26,0,0,0-9.43,23.22,34.93,34.93,0,0,0,.24,3.86,17.53,17.53,0,0,0-27.76,6.22,17.54,17.54,0,0,0-25.77-7.75c0-.21,0-.42,0-.6a39.47,39.47,0,0,0-28.32-37.69,40.8,40.8,0,0,0-19.46-.93,39.78,39.78,0,0,0-12.8,4.92,27,27,0,0,0-5.95-11.43c-.38-.44-.78-.88-1.19-1.29A27.79,27.79,0,0,0,141,369.56c-.9-.09-1.81-.13-2.74-.13-.49,0-1,0-1.47,0s-.91,0-1.35.1-.64.07-1,.13a19.49,19.49,0,0,0-2.66.49l-.89.23H131a27.68,27.68,0,0,0-10.53,5.43,27,27,0,0,0-2.3,2.11,17.54,17.54,0,0,0-11.49-4.54h0c.11-.26.22-.54.33-.82a38.24,38.24,0,0,0,.4-25.82c-.11-.33-.22-.65-.35-1-.32-.86-.68-1.7-1-2.53-.27-.57-.53-1.13-.82-1.68-.58-1.11-1.2-2.19-1.88-3.23-.52-.79-1-1.55-1.61-2.29-.38-.49-.76-1-1.16-1.46a40.3,40.3,0,0,0-5.3-5.23q-.72-.58-1.47-1.14c-.28-.2-.57-.41-.86-.6h0a39.48,39.48,0,0,0-22.53-7.05,39.47,39.47,0,0,0-17.7,4.17,207.32,207.32,0,0,0-10.11,51.67c.58.94,1.16,1.88,1.77,2.8,78.73,119.24,212,117.27,293.26,93C395.39,455,434.53,418.51,457.5,374.83Z" style="fill:#E45858;opacity:0.1"></path><path d="M42.55,376.8a.86.86,0,0,1,0,.16v-.16Z" style="fill:#E45858;opacity:0.1"></path><path d="M397.79,273.18c-.21.18-.42.36-.62.56a7.21,7.21,0,0,0-.7.66,8.61,8.61,0,0,0-.68.67c-.23.23-.44.47-.66.7a20.54,20.54,0,0,0-1.35,1.61c-.14.18-.28.36-.41.55a1.37,1.37,0,0,0-.15.21c-.32.42-.61.84-.89,1.29a1.82,1.82,0,0,0-.15.23l-.32.52c-.38.64-.74,1.28-1.06,1.94-.13.24-.24.49-.35.73a2.1,2.1,0,0,1-.13.26l-.33.77c-.26.64-.51,1.3-.73,2-.08.26-.16.52-.23.79s-.2.65-.28,1-.21.83-.29,1.26-.16.8-.22,1.21c0,.09,0,.18-.05.27-.06.38-.1.74-.14,1.12a.13.13,0,0,0,0,.06c0,.14,0,.3,0,.45s0,.26,0,.39,0,.45,0,.68v.11c0,.48,0,.94,0,1.41A28.27,28.27,0,0,0,403,319.48c.31.17.63.33.95.48s.83.4,1.26.58c.75.32,1.53.61,2.32.88.39.12.78.25,1.18.36.8.23,1.63.42,2.45.58q-.27,1-.48,2.07t-.3,1.83a28.4,28.4,0,0,0-.28,4.05,31.09,31.09,0,0,0,1.23,8.69c.15.5.31,1,.47,1.5a31.51,31.51,0,0,0,7.79,12.25c.6.61,1.25,1.18,1.92,1.74s1.35,1.07,2.06,1.57a32.13,32.13,0,0,0,9.42,4.56c.44.13.87.24,1.3.35A14.37,14.37,0,0,0,429,372.14a11.76,11.76,0,0,0,.08,1.34c-.51,0-1-.06-1.55-.06a17.34,17.34,0,0,0-8.83,2.39,17.12,17.12,0,0,0-2.92,2.14,35,35,0,0,0-17.33-19.24,1.75,1.75,0,0,0-.24-.11l-.89-.43-1-.44-.23-.09c-.41-.17-.83-.33-1.25-.48s-1-.37-1.54-.53l-1-.31-1.32-.34h0c-.88-.2-1.77-.38-2.67-.52a36.77,36.77,0,0,0-5.59-.44,35.92,35.92,0,0,0-6.78.64h0a35.27,35.27,0,0,0-17.69,9.11c-.15.13-.3.28-.44.42a34.68,34.68,0,0,0-7.21,10.26c-.19.44-.39.88-.57,1.33s-.48,1.2-.68,1.82a31.93,31.93,0,0,0-1.31,5c-.11.61-.21,1.21-.28,1.82a34.35,34.35,0,0,0-.28,4.33,33.56,33.56,0,0,0,.43,5.34c.07.45.15.88.23,1.31a36.94,36.94,0,0,0,1,3.79h0a17.48,17.48,0,0,0-7.38,3.43c-.25-.37-.51-.74-.79-1.1a34.33,34.33,0,0,0-3.09-3.62c-.72-.73-1.46-1.42-2.24-2.08a34.52,34.52,0,0,0-22.26-8.15,34.51,34.51,0,0,0-10.38,1.59l-.57.18c-.53.18-1,.36-1.57.57s-1,.41-1.53.64-1,.46-1.49.71c-.25.12-.49.24-.73.38a31.59,31.59,0,0,0-2.81,1.68c-.46.3-.91.62-1.34.94-.23.16-.44.33-.66.49-.42.34-.84.68-1.25,1-.62.54-1.23,1.08-1.81,1.66l-.57.58a33.26,33.26,0,0,0-9.43,23.22,34.93,34.93,0,0,0,.24,3.86,17.53,17.53,0,0,0-27.76,6.22,17.54,17.54,0,0,0-25.77-7.75c0-.21,0-.42,0-.6a39.47,39.47,0,0,0-28.32-37.69,40.8,40.8,0,0,0-19.46-.93,39.78,39.78,0,0,0-12.8,4.92,27,27,0,0,0-5.95-11.43c-.38-.44-.78-.88-1.19-1.29A27.79,27.79,0,0,0,141,369.56c-.9-.09-1.81-.13-2.74-.13-.49,0-1,0-1.47,0s-.91,0-1.35.1-.64.07-1,.13a19.49,19.49,0,0,0-2.66.49l-.89.23H131a27.68,27.68,0,0,0-10.53,5.43,27,27,0,0,0-2.3,2.11,17.54,17.54,0,0,0-11.49-4.54h0c.11-.26.22-.54.33-.82a38.24,38.24,0,0,0,.4-25.82c-.11-.33-.22-.65-.35-1-.32-.86-.68-1.7-1-2.53-.27-.57-.53-1.13-.82-1.68-.58-1.11-1.2-2.19-1.88-3.23-.52-.79-1-1.55-1.61-2.29-.38-.49-.76-1-1.16-1.46a40.3,40.3,0,0,0-5.3-5.23q-.72-.58-1.47-1.14c-.28-.2-.57-.41-.86-.6h0a39.07,39.07,0,0,0-18.17-6.81,188.1,188.1,0,0,0-13.26,69.62c0,3.95.12,8.39.37,12.3,79.84,95.3,200.26,92,275.75,69.49,43.92-13.12,77.06-37.34,100.52-67.39q.54-7.12.54-14.4A187.79,187.79,0,0,0,397.79,273.18Z" style="fill:#E45858;opacity:0.1"></path><path d="M419.28,390.45c0-4.93-.22-9.81-.63-14.64a17.12,17.12,0,0,0-2.92,2.14,35,35,0,0,0-17.33-19.24,1.75,1.75,0,0,0-.24-.11l-.89-.43-1-.44-.23-.09c-.41-.17-.83-.33-1.25-.48s-1-.37-1.54-.53l-1-.31-1.32-.34h0c-.88-.2-1.77-.38-2.67-.52a36.77,36.77,0,0,0-5.59-.44,35.92,35.92,0,0,0-6.78.64h0a35.27,35.27,0,0,0-17.69,9.11c-.15.13-.3.28-.44.42a34.68,34.68,0,0,0-7.21,10.26c-.19.44-.39.88-.57,1.33s-.48,1.2-.68,1.82a31.93,31.93,0,0,0-1.31,5c-.11.61-.21,1.21-.28,1.82a34.35,34.35,0,0,0-.28,4.33,33.56,33.56,0,0,0,.43,5.34c.07.45.15.88.23,1.31a36.94,36.94,0,0,0,1,3.79h0a17.48,17.48,0,0,0-7.38,3.43c-.25-.37-.51-.74-.79-1.1a34.33,34.33,0,0,0-3.09-3.62c-.72-.73-1.46-1.42-2.24-2.08a34.52,34.52,0,0,0-22.26-8.15,34.51,34.51,0,0,0-10.38,1.59l-.57.18c-.53.18-1,.36-1.57.57s-1,.41-1.53.64-1,.46-1.49.71c-.25.12-.49.24-.73.38a31.59,31.59,0,0,0-2.81,1.68c-.46.3-.91.62-1.34.94-.23.16-.44.33-.66.49-.42.34-.84.68-1.25,1-.62.54-1.23,1.08-1.81,1.66l-.57.58a33.26,33.26,0,0,0-9.43,23.22,34.93,34.93,0,0,0,.24,3.86,17.53,17.53,0,0,0-27.76,6.22,17.54,17.54,0,0,0-25.77-7.75c0-.21,0-.42,0-.6a39.47,39.47,0,0,0-28.32-37.69,40.8,40.8,0,0,0-19.46-.93,39.78,39.78,0,0,0-12.8,4.92,27,27,0,0,0-5.95-11.43c-.38-.44-.78-.88-1.19-1.29A27.79,27.79,0,0,0,141,369.56c-.9-.09-1.81-.13-2.74-.13-.49,0-1,0-1.47,0s-.91,0-1.35.1-.64.07-1,.13a19.49,19.49,0,0,0-2.66.49l-.89.23H131a27.68,27.68,0,0,0-10.53,5.43,27,27,0,0,0-2.3,2.11,17.54,17.54,0,0,0-11.49-4.54h0c.11-.26.22-.54.33-.82a38.24,38.24,0,0,0,.4-25.82c-.11-.33-.22-.65-.35-1-.32-.86-.68-1.7-1-2.53-.27-.57-.53-1.13-.82-1.68-.58-1.11-1.2-2.19-1.88-3.23-.52-.79-1-1.55-1.61-2.29-.38-.49-.76-1-1.16-1.46a40.3,40.3,0,0,0-5.3-5.23q-.72-.58-1.47-1.14c-.28-.2-.57-.41-.86-.6a168.87,168.87,0,0,0-12,62.8,178,178,0,0,0,3.6,35.72v.11c78.66,71,184.49,66.46,253.14,46,30.86-9.22,56.39-23.93,77-42.27C414.7,429.47,419.28,403.92,419.28,390.45Z" style="fill:#E45858;opacity:0.1"></path><path d="M387.88,294.56A28.27,28.27,0,0,0,403,319.48c.31.17.63.33.95.48a168.63,168.63,0,0,0-16-27.6c0,.23,0,.45,0,.68v.11C387.89,293.63,387.88,294.09,387.88,294.56Z" style="fill:#E45858;opacity:0.1"></path><path d="M396.26,357.73l-.23-.09c-.41-.17-.83-.33-1.25-.48s-1-.37-1.54-.53l-1-.31-1.32-.34h0c-.88-.2-1.77-.38-2.67-.52a36.77,36.77,0,0,0-5.59-.44,35.92,35.92,0,0,0-6.78.64h0a35.27,35.27,0,0,0-17.69,9.11c-.15.13-.3.28-.44.42a34.68,34.68,0,0,0-7.21,10.26c-.19.44-.39.88-.57,1.33s-.48,1.2-.68,1.82a31.93,31.93,0,0,0-1.31,5c-.11.61-.21,1.21-.28,1.82a34.35,34.35,0,0,0-.28,4.33,33.56,33.56,0,0,0,.43,5.34c.07.45.15.88.23,1.31a36.94,36.94,0,0,0,1,3.79h0a17.48,17.48,0,0,0-7.38,3.43c-.25-.37-.51-.74-.79-1.1a34.33,34.33,0,0,0-3.09-3.62c-.72-.73-1.46-1.42-2.24-2.08a34.52,34.52,0,0,0-22.26-8.15,34.51,34.51,0,0,0-10.38,1.59l-.57.18c-.53.18-1,.36-1.57.57s-1,.41-1.53.64-1,.46-1.49.71c-.25.12-.49.24-.73.38a31.59,31.59,0,0,0-2.81,1.68c-.46.3-.91.62-1.34.94-.23.16-.44.33-.66.49-.42.34-.84.68-1.25,1-.62.54-1.23,1.08-1.81,1.66l-.57.58a33.26,33.26,0,0,0-9.43,23.22,34.93,34.93,0,0,0,.24,3.86,17.53,17.53,0,0,0-27.76,6.22,17.54,17.54,0,0,0-25.77-7.75c0-.21,0-.42,0-.6a39.47,39.47,0,0,0-28.32-37.69,40.8,40.8,0,0,0-19.46-.93,39.78,39.78,0,0,0-12.8,4.92,27,27,0,0,0-5.95-11.43c-.38-.44-.78-.88-1.19-1.29A27.79,27.79,0,0,0,141,369.56c-.9-.09-1.81-.13-2.74-.13-.49,0-1,0-1.47,0s-.91,0-1.35.1-.64.07-1,.13a19.49,19.49,0,0,0-2.66.49l-.89.23H131a27.68,27.68,0,0,0-10.53,5.43,27,27,0,0,0-2.3,2.11,17.54,17.54,0,0,0-11.49-4.54h0c.11-.26.22-.54.33-.82a38.24,38.24,0,0,0,.4-25.82c-.11-.33-.22-.65-.35-1a149.92,149.92,0,0,0-6.76,44.64,155.57,155.57,0,0,0,10.45,56.22h0c74.74,49.45,165.59,43.85,226.84,25.56a209.08,209.08,0,0,0,49.87-22.11c.14-.42,12.37-38.59,12.37-59.68A149.54,149.54,0,0,0,396.26,357.73Z" style="fill:#E45858;opacity:0.1"></path><path d="M380.5,390.45a130.83,130.83,0,0,0-4.69-34.79,35.27,35.27,0,0,0-17.69,9.11c-.15.13-.3.28-.44.42a34.68,34.68,0,0,0-7.21,10.26c-.19.44-.39.88-.57,1.33s-.48,1.2-.68,1.82a31.93,31.93,0,0,0-1.31,5c-.11.61-.21,1.21-.28,1.82a34.35,34.35,0,0,0-.28,4.33,33.56,33.56,0,0,0,.43,5.34c.07.45.15.88.23,1.31a36.94,36.94,0,0,0,1,3.79h0a17.48,17.48,0,0,0-7.38,3.43c-.25-.37-.51-.74-.79-1.1a34.33,34.33,0,0,0-3.09-3.62c-.72-.73-1.46-1.42-2.24-2.08a34.52,34.52,0,0,0-22.26-8.15,34.51,34.51,0,0,0-10.38,1.59l-.57.18c-.53.18-1,.36-1.57.57s-1,.41-1.53.64-1,.46-1.49.71c-.25.12-.49.24-.73.38a31.59,31.59,0,0,0-2.81,1.68c-.46.3-.91.62-1.34.94-.23.16-.44.33-.66.49-.42.34-.84.68-1.25,1-.62.54-1.23,1.08-1.81,1.66l-.57.58a33.26,33.26,0,0,0-9.43,23.22,34.93,34.93,0,0,0,.24,3.86,17.53,17.53,0,0,0-27.76,6.22,17.54,17.54,0,0,0-25.77-7.75c0-.21,0-.42,0-.6a39.47,39.47,0,0,0-28.32-37.69,40.8,40.8,0,0,0-19.46-.93,39.78,39.78,0,0,0-12.8,4.92,27,27,0,0,0-5.95-11.43c-.38-.44-.78-.88-1.19-1.29A27.79,27.79,0,0,0,141,369.56c-.9-.09-1.81-.13-2.74-.13-.49,0-1,0-1.47,0s-.91,0-1.35.1-.64.07-1,.13a19.49,19.49,0,0,0-2.66.49l-.89.23H131a27.68,27.68,0,0,0-10.53,5.43,130.41,130.41,0,0,0-.81,14.6,133.53,133.53,0,0,0,21.67,73.15c67.81,30.82,143.16,24.5,196.26,8.64q9.92-3,19.09-6.68A129.77,129.77,0,0,0,380.5,390.45Z" style="fill:#E45858;opacity:0.1"></path><path d="M358.12,364.77c-.15.13-.3.28-.44.42a34.68,34.68,0,0,0-7.21,10.26c-.19.44-.39.88-.57,1.33s-.48,1.2-.68,1.82a31.93,31.93,0,0,0-1.31,5c-.11.61-.21,1.21-.28,1.82a34.35,34.35,0,0,0-.28,4.33,33.56,33.56,0,0,0,.43,5.34c.07.45.15.88.23,1.31a36.94,36.94,0,0,0,1,3.79h0a17.48,17.48,0,0,0-7.38,3.43c-.25-.37-.51-.74-.79-1.1a34.33,34.33,0,0,0-3.09-3.62c-.72-.73-1.46-1.42-2.24-2.08a34.52,34.52,0,0,0-22.26-8.15,34.51,34.51,0,0,0-10.38,1.59l-.57.18c-.53.18-1,.36-1.57.57s-1,.41-1.53.64-1,.46-1.49.71c-.25.12-.49.24-.73.38a31.59,31.59,0,0,0-2.81,1.68c-.46.3-.91.62-1.34.94-.23.16-.44.33-.66.49-.42.34-.84.68-1.25,1-.62.54-1.23,1.08-1.81,1.66l-.57.58a33.26,33.26,0,0,0-9.43,23.22,34.93,34.93,0,0,0,.24,3.86,17.53,17.53,0,0,0-27.76,6.22,17.54,17.54,0,0,0-25.77-7.75c0-.21,0-.42,0-.6a39.47,39.47,0,0,0-28.32-37.69,40.8,40.8,0,0,0-19.46-.93,39.78,39.78,0,0,0-12.8,4.92,27,27,0,0,0-5.95-11.43c-.38-.44-.78-.88-1.19-1.29A27.79,27.79,0,0,0,141,369.56a110.59,110.59,0,0,0-2,20.89A112.73,112.73,0,0,0,179.47,477c49.2,12.77,99.41,9.5,140.13,0a111.26,111.26,0,0,0,38.52-112.25Z" style="fill:#E45858;opacity:0.1"></path><path d="M337.72,398.9c-.72-.73-1.46-1.42-2.24-2.08a34.52,34.52,0,0,0-22.26-8.15,34.51,34.51,0,0,0-10.38,1.59l-.57.18c-.53.18-1,.36-1.57.57s-1,.41-1.53.64-1,.46-1.49.71c-.25.12-.49.24-.73.38a31.59,31.59,0,0,0-2.81,1.68c-.46.3-.91.62-1.34.94-.23.16-.44.33-.66.49-.42.34-.84.68-1.25,1-.62.54-1.23,1.08-1.81,1.66l-.57.58a33.26,33.26,0,0,0-9.43,23.22,34.93,34.93,0,0,0,.24,3.86,17.53,17.53,0,0,0-27.76,6.22,17.54,17.54,0,0,0-25.77-7.75c0-.21,0-.42,0-.6a39.47,39.47,0,0,0-28.32-37.69,40.8,40.8,0,0,0-19.46-.93,39.78,39.78,0,0,0-12.8,4.92,27,27,0,0,0-5.95-11.43,95,95,0,0,0-.71,11.51,91.52,91.52,0,0,0,182.24,12.07A34.33,34.33,0,0,0,337.72,398.9Z" style="fill:#E45858;opacity:0.2"></path><path d="M322.3,389.89a34,34,0,0,0-9.08-1.22,34.51,34.51,0,0,0-10.38,1.59l-.57.18c-.53.18-1,.36-1.57.57s-1,.41-1.53.64-1,.46-1.49.71c-.25.12-.49.24-.73.38a31.59,31.59,0,0,0-2.81,1.68c-.46.3-.91.62-1.34.94-.23.16-.44.33-.66.49-.42.34-.84.68-1.25,1-.62.54-1.23,1.08-1.81,1.66l-.57.58a33.26,33.26,0,0,0-9.43,23.22,34.93,34.93,0,0,0,.24,3.86,17.53,17.53,0,0,0-27.76,6.22,17.54,17.54,0,0,0-25.77-7.75c0-.21,0-.42,0-.6a39.47,39.47,0,0,0-28.32-37.69,40.8,40.8,0,0,0-19.46-.93c-.11,1.65-.18,3.32-.18,5a72.23,72.23,0,0,0,144.46,0C322.31,390.27,322.31,390.07,322.3,389.89Z" style="fill:#E45858;opacity:0.30000000000000004"></path><path d="M302.85,390.26v.19a52.76,52.76,0,1,1-105.51,0c0-1.37,0-2.73.15-4.07a39.47,39.47,0,0,1,28.33,37.69c0,.18,0,.39,0,.59a17.54,17.54,0,0,1,25.76,7.76,17.53,17.53,0,0,1,27.76-6.22,35.09,35.09,0,0,1-.23-3.86,33.3,33.3,0,0,1,9.42-23.23l.58-.57c.57-.58,1.18-1.12,1.8-1.66.41-.35.83-.69,1.25-1l.66-.49c.43-.32.89-.64,1.34-.94.91-.6,1.84-1.17,2.81-1.69l.73-.38,1.49-.71c.51-.22,1-.44,1.53-.63s1-.39,1.57-.57Z" style="fill:#E45858;opacity:0.45"></path></g><g style="opacity:0.5"><path d="M280.13,426.94c-.26-.26-.53-.5-.8-.74a32,32,0,0,0,.65,3.69C280,428.9,280,427.92,280.13,426.94Z" style="fill:#E45858"></path><path d="M341.6,403.63a34.23,34.23,0,0,0-62.51,18.71,32.65,32.65,0,0,0,.24,3.86c.27.24.54.48.8.74a34.23,34.23,0,0,1,58.55-20.35,33.44,33.44,0,0,1,8.68,15.8v-.05A33.15,33.15,0,0,0,341.6,403.63Z" style="fill:#E45858"></path><path d="M393.74,358.4a35.76,35.76,0,0,1,4.66.31,35.44,35.44,0,0,0-15.81-3.7c-19.46,0-35.23,15.55-35.23,34.74A34.39,34.39,0,0,0,349,400.19a35,35,0,0,0,20.28,21.71,35.73,35.73,0,0,0,8.66,2.27,35.71,35.71,0,0,1-8-5.47,34.59,34.59,0,0,1-10.39-17.43,34.1,34.1,0,0,1-1-8.14C358.52,374,374.29,358.4,393.74,358.4Z" style="fill:#E45858"></path><path d="M450.66,355.73a31.89,31.89,0,0,1-32.11-31.67c0-.43,0-.86.06-1.29a31.2,31.2,0,0,1,1.12-7.14,28.69,28.69,0,0,1-23.18-27.78,28,28,0,0,1,7-18.49,28.18,28.18,0,0,0,7.61,53,31.25,31.25,0,0,0-1.06,8A31.73,31.73,0,0,0,434.28,361a14.81,14.81,0,0,1,18-.58,32.16,32.16,0,0,0,13.16-8.2A32.31,32.31,0,0,1,450.66,355.73Z" style="fill:#E45858"></path><path d="M442.83,283.12c.44-.08.86-.2,1.29-.31-.52,0-1-.09-1.52-.17C442.67,282.8,442.76,283,442.83,283.12Z" style="fill:#E45858"></path><path d="M442.6,282.64a17.27,17.27,0,0,1-14.76-17,17,17,0,0,1,1.06-5.86,17.37,17.37,0,0,1,11.68-10.69c-.39,0-.78-.06-1.18-.06a17.45,17.45,0,0,0-16.11,10.59,17,17,0,0,0-1.34,6.62c0,.17,0,.34,0,.51a17.32,17.32,0,0,0,17.42,16.7,17.58,17.58,0,0,0,3.43-.34C442.76,283,442.67,282.8,442.6,282.64Z" style="fill:#E45858"></path><path d="M157.55,396.33a39.79,39.79,0,0,1,7.68-6,27.65,27.65,0,0,0-26.93-20.95,28.13,28.13,0,0,0-7.33,1A27.49,27.49,0,0,1,157.55,396.33Z" style="fill:#E45858"></path><path d="M70.39,320.59l-.84,0a38.71,38.71,0,0,1,31.26,37.79,37.91,37.91,0,0,1-4.71,18.36,39.11,39.11,0,0,1-33.54,20.17A39.63,39.63,0,0,0,89.14,393a38.83,38.83,0,0,0,17.56-19.56,37.92,37.92,0,0,0,2.78-14.28C109.48,337.86,92,320.59,70.39,320.59Z" style="fill:#E45858"></path><path d="M45,291.13a39.27,39.27,0,0,1-10.68,26.94,27.61,27.61,0,0,0-8.63-1.37,26.72,26.72,0,0,0-5.34.54c0-.2-.08-.4-.11-.6,9.85-7.23,15.73-18.83,16.3-31.9.73-17-5.7-23.27-9-26.31A39.46,39.46,0,0,1,45,291.13Z" style="fill:#E45858"></path></g><path d="M465.67,288.48a18,18,0,0,0,6.52,13.88,25.49,25.49,0,0,0-2.41,44.26,233.56,233.56,0,0,0,13.11-76.3A18.3,18.3,0,0,0,465.67,288.48Z" style="fill:#263238"></path><path d="M225.23,484.59c-32.7-2.51-66.41-10.86-98-28a36.1,36.1,0,0,1,70.64,6.54,22.83,22.83,0,0,1,4.24-.41A23.12,23.12,0,0,1,225.23,484.59Z" style="fill:#263238"></path><path d="M383.64,452.44a210.23,210.23,0,0,1-46,19.8,319,319,0,0,1-51.94,10.82,36.09,36.09,0,0,1,59.08-23.67,23.11,23.11,0,0,1,38.89-6.95Z" style="fill:#263238"></path><path d="M44.35,379.23c1.81,2.75,3.67,5.41,5.54,8,1.94-3.24,2-8.92,1.55-12.46-1.16-9.87-7-18.09-17.36-18.78a18,18,0,0,0,4.86-14.54,18.28,18.28,0,0,0-17-16A161.31,161.31,0,0,0,44.35,379.23Z" style="fill:#263238"></path><path d="M449.35,293.36a4.36,4.36,0,1,1,4.36,4.31A4.33,4.33,0,0,1,449.35,293.36Z" style="fill:#37474f"></path><path d="M53,358.77a5.66,5.66,0,1,1,5.66,5.58A5.62,5.62,0,0,1,53,358.77Z" style="fill:#37474f"></path><path d="M123.24,417a6,6,0,1,1,6,5.87A5.91,5.91,0,0,1,123.24,417Z" style="fill:#37474f"></path><path d="M109.66,422.3a3.31,3.31,0,1,1,3.3,3.26A3.28,3.28,0,0,1,109.66,422.3Z" style="fill:#37474f"></path><path d="M376.55,398.83a2.54,2.54,0,1,1,2.53,2.5A2.51,2.51,0,0,1,376.55,398.83Z" style="fill:#37474f"></path><path d="M387.16,412.61a4.38,4.38,0,1,1,4.38,4.31A4.35,4.35,0,0,1,387.16,412.61Z" style="fill:#37474f"></path><ellipse cx="447.69" cy="237.54" rx="2.6" ry="2.56" style="fill:#455a64"></ellipse><path d="M381.62,343.44a2.44,2.44,0,1,1,2.43,2.4A2.41,2.41,0,0,1,381.62,343.44Z" style="fill:#455a64"></path><path d="M116.27,341.06A1.77,1.77,0,1,1,118,342.8,1.75,1.75,0,0,1,116.27,341.06Z" style="fill:#455a64"></path><path d="M54.68,302.83a3.94,3.94,0,1,1,3.94,3.89A3.91,3.91,0,0,1,54.68,302.83Z" style="fill:#455a64"></path></g></g></svg>